{
    "asset" : {
        "generator" : "Khronos glTF Blender I/O v1.6.16",
        "version" : "2.0"
    },
    "scene" : 0,
    "scenes" : [
        {
            "name" : "Scene",
            "nodes" : [
                0,
                1,
                2
            ]
        }
    ],
    "nodes" : [
        {
            "mesh" : 0,
            "name" : "20",
            "scale" : [
                9.25398063659668,
                9.25398063659668,
                9.25398063659668
            ],
            "translation" : [
                -0.5587310791015625,
                -0.8226208686828613,
                0.35092926025390625
            ]
        },
        {
            "mesh" : 1,
            "name" : "Text.001",
            "scale" : [
                5.42439603805542,
                5.42439603805542,
                5.42439603805542
            ],
            "translation" : [
                4.423555850982666,
                -1.042972445487976,
                6.3612284660339355
            ]
        },
        {
            "mesh" : 2,
            "name" : "Text.002",
            "scale" : [
                9.25398063659668,
                9.25398063659668,
                9.25398063659668
            ],
            "translation" : [
                13.656596183776855,
                -0.5108292102813721,
                9.893532752990723
            ]
        }
    ],
    "meshes" : [
        {
            "name" : "Text",
            "primitives" : [
                {
                    "attributes" : {
                        "POSITION" : 0,
                        "NORMAL" : 1,
                        "TEXCOORD_0" : 2
                    },
                    "indices" : 3
                }
            ]
        },
        {
            "name" : "Text.001",
            "primitives" : [
                {
                    "attributes" : {
                        "POSITION" : 4,
                        "NORMAL" : 5,
                        "TEXCOORD_0" : 6
                    },
                    "indices" : 7
                }
            ]
        },
        {
            "name" : "Text.002",
            "primitives" : [
                {
                    "attributes" : {
                        "POSITION" : 8,
                        "NORMAL" : 9,
                        "TEXCOORD_0" : 10
                    },
                    "indices" : 11
                }
            ]
        }
    ],
    "accessors" : [
        {
            "bufferView" : 0,
            "componentType" : 5126,
            "count" : 2547,
            "max" : [
                0.8706058859825134,
                0.1199999749660492,
                0.023776860907673836
            ],
            "min" : [
                0.013691446743905544,
                -0.09752441942691803,
                -0.7896201610565186
            ],
            "type" : "VEC3"
        },
        {
            "bufferView" : 1,
            "componentType" : 5126,
            "count" : 2547,
            "type" : "VEC3"
        },
        {
            "bufferView" : 2,
            "componentType" : 5126,
            "count" : 2547,
            "type" : "VEC2"
        },
        {
            "bufferView" : 3,
            "componentType" : 5123,
            "count" : 9036,
            "type" : "SCALAR"
        },
        {
            "bufferView" : 4,
            "componentType" : 5126,
            "count" : 5947,
            "max" : [
                1.317251443862915,
                0.17499999701976776,
                0.028799401596188545
            ],
            "min" : [
                0.008691460825502872,
                -0.1599999964237213,
                -0.7169348001480103
            ],
            "type" : "VEC3"
        },
        {
            "bufferView" : 5,
            "componentType" : 5126,
            "count" : 5947,
            "type" : "VEC3"
        },
        {
            "bufferView" : 6,
            "componentType" : 5126,
            "count" : 5947,
            "type" : "VEC2"
        },
        {
            "bufferView" : 7,
            "componentType" : 5123,
            "count" : 23094,
            "type" : "SCALAR"
        },
        {
            "bufferView" : 8,
            "componentType" : 5126,
            "count" : 241,
            "max" : [
                1.2688566446304321,
                0.14499999582767487,
                0.014999999664723873
            ],
            "min" : [
                0.008691460825502872,
                -0.12999999523162842,
                -0.7813912034034729
            ],
            "type" : "VEC3"
        },
        {
            "bufferView" : 9,
            "componentType" : 5126,
            "count" : 241,
            "type" : "VEC3"
        },
        {
            "bufferView" : 10,
            "componentType" : 5126,
            "count" : 241,
            "type" : "VEC2"
        },
        {
            "bufferView" : 11,
            "componentType" : 5123,
            "count" : 918,
            "type" : "SCALAR"
        }
    ],
    "bufferViews" : [
        {
            "buffer" : 0,
            "byteLength" : 30564,
            "byteOffset" : 0
        },
        {
            "buffer" : 0,
            "byteLength" : 30564,
            "byteOffset" : 30564
        },
        {
            "buffer" : 0,
            "byteLength" : 20376,
            "byteOffset" : 61128
        },
        {
            "buffer" : 0,
            "byteLength" : 18072,
            "byteOffset" : 81504
        },
        {
            "buffer" : 0,
            "byteLength" : 71364,
            "byteOffset" : 99576
        },
        {
            "buffer" : 0,
            "byteLength" : 71364,
            "byteOffset" : 170940
        },
        {
            "buffer" : 0,
            "byteLength" : 47576,
            "byteOffset" : 242304
        },
        {
            "buffer" : 0,
            "byteLength" : 46188,
            "byteOffset" : 289880
        },
        {
            "buffer" : 0,
            "byteLength" : 2892,
            "byteOffset" : 336068
        },
        {
            "buffer" : 0,
            "byteLength" : 2892,
            "byteOffset" : 338960
        },
        {
            "buffer" : 0,
            "byteLength" : 1928,
            "byteOffset" : 341852
        },
        {
            "buffer" : 0,
            "byteLength" : 1836,
            "byteOffset" : 343780
        }
    ],
    "buffers" : [
        {
            "byteLength" : 345616,
            "uri" : "data:application/octet-stream;base64,"
        }
    ]
}
