{
    "asset" : {
        "generator" : "Khronos glTF Blender I/O v1.6.16",
        "version" : "2.0"
    },
    "scene" : 0,
    "scenes" : [
        {
            "name" : "Scene",
            "nodes" : [
                0,
                2,
                3,
                5,
                6
            ]
        }
    ],
    "nodes" : [
        {
            "mesh" : 0,
            "name" : "couloir",
            "translation" : [
                -0.13937878608703613,
                6.409201145172119,
                -0.1506338119506836
            ]
        },
        {
            "mesh" : 1,
            "name" : "poignee_1",
            "scale" : [
                1,
                0.7573920488357544,
                1
            ],
            "translation" : [
                1.1887741088867188,
                0.027084827423095703,
                6.6595778465271
            ]
        },
        {
            "children" : [
                1
            ],
            "mesh" : 2,
            "name" : "porte_1",
            "scale" : [
                0.6482017040252686,
                0.6482017040252686,
                0.6482017040252686
            ],
            "translation" : [
                -8.194979667663574,
                4.0538740158081055,
                -1.0355267524719238
            ]
        },
        {
            "mesh" : 3,
            "name" : "cadre_porte_1",
            "scale" : [
                0.2058822065591812,
                0.976079523563385,
                0.1630748212337494
            ],
            "translation" : [
                -8.027786254882812,
                5.0172929763793945,
                1.407304286956787
            ]
        },
        {
            "mesh" : 4,
            "name" : "poignee_2",
            "scale" : [
                1,
                0.7573920488357544,
                1
            ],
            "translation" : [
                -1.188776969909668,
                0.027085304260253906,
                -6.659578323364258
            ]
        },
        {
            "children" : [
                4
            ],
            "mesh" : 5,
            "name" : "porte_2",
            "scale" : [
                0.6482017040252686,
                0.6482017040252686,
                0.6482017040252686
            ],
            "translation" : [
                7.925027847290039,
                4.06763219833374,
                3.336731195449829
            ]
        },
        {
            "mesh" : 6,
            "name" : "cadre_porte_2",
            "scale" : [
                0.2058822065591812,
                0.976079523563385,
                0.1630748212337494
            ],
            "translation" : [
                7.757834434509277,
                5.031051158905029,
                0.8938992619514465
            ]
        }
    ],
    "meshes" : [
        {
            "name" : "Cube.012",
            "primitives" : [
                {
                    "attributes" : {
                        "POSITION" : 0,
                        "NORMAL" : 1,
                        "TEXCOORD_0" : 2
                    },
                    "indices" : 3
                }
            ]
        },
        {
            "name" : "Cube.008",
            "primitives" : [
                {
                    "attributes" : {
                        "POSITION" : 4,
                        "NORMAL" : 5,
                        "TEXCOORD_0" : 6
                    },
                    "indices" : 7
                }
            ]
        },
        {
            "name" : "Cube.010",
            "primitives" : [
                {
                    "attributes" : {
                        "POSITION" : 8,
                        "NORMAL" : 9,
                        "TEXCOORD_0" : 10
                    },
                    "indices" : 11
                }
            ]
        },
        {
            "name" : "Cube",
            "primitives" : [
                {
                    "attributes" : {
                        "POSITION" : 12,
                        "NORMAL" : 13,
                        "TEXCOORD_0" : 14
                    },
                    "indices" : 15
                }
            ]
        },
        {
            "name" : "Cube.007",
            "primitives" : [
                {
                    "attributes" : {
                        "POSITION" : 16,
                        "NORMAL" : 17,
                        "TEXCOORD_0" : 18
                    },
                    "indices" : 19
                }
            ]
        },
        {
            "name" : "Cube.009",
            "primitives" : [
                {
                    "attributes" : {
                        "POSITION" : 20,
                        "NORMAL" : 21,
                        "TEXCOORD_0" : 22
                    },
                    "indices" : 23
                }
            ]
        },
        {
            "name" : "Cube.016",
            "primitives" : [
                {
                    "attributes" : {
                        "POSITION" : 24,
                        "NORMAL" : 25,
                        "TEXCOORD_0" : 26
                    },
                    "indices" : 27
                }
            ]
        }
    ],
    "accessors" : [
        {
            "bufferView" : 0,
            "componentType" : 5126,
            "count" : 113,
            "max" : [
                8.013376235961914,
                7.494467735290527,
                51.163352966308594
            ],
            "min" : [
                -8.020390510559082,
                -7.494466781616211,
                -51.16334533691406
            ],
            "type" : "VEC3"
        },
        {
            "bufferView" : 1,
            "componentType" : 5126,
            "count" : 113,
            "type" : "VEC3"
        },
        {
            "bufferView" : 2,
            "componentType" : 5126,
            "count" : 113,
            "type" : "VEC2"
        },
        {
            "bufferView" : 3,
            "componentType" : 5123,
            "count" : 216,
            "type" : "SCALAR"
        },
        {
            "bufferView" : 4,
            "componentType" : 5126,
            "count" : 44,
            "max" : [
                0.004258695989847183,
                0.2138214409351349,
                0.18989375233650208
            ],
            "min" : [
                -0.8330775499343872,
                -0.17872239649295807,
                -1.4403973817825317
            ],
            "type" : "VEC3"
        },
        {
            "bufferView" : 5,
            "componentType" : 5126,
            "count" : 44,
            "type" : "VEC3"
        },
        {
            "bufferView" : 6,
            "componentType" : 5126,
            "count" : 44,
            "type" : "VEC2"
        },
        {
            "bufferView" : 7,
            "componentType" : 5123,
            "count" : 78,
            "type" : "SCALAR"
        },
        {
            "bufferView" : 8,
            "componentType" : 5126,
            "count" : 44,
            "max" : [
                0.486310213804245,
                7.13996696472168,
                7.546722412109375
            ],
            "min" : [
                -0.04988846555352211,
                -6.940942764282227,
                -1.907566729641985e-05
            ],
            "type" : "VEC3"
        },
        {
            "bufferView" : 9,
            "componentType" : 5126,
            "count" : 44,
            "type" : "VEC3"
        },
        {
            "bufferView" : 10,
            "componentType" : 5126,
            "count" : 44,
            "type" : "VEC2"
        },
        {
            "bufferView" : 11,
            "componentType" : 5123,
            "count" : 66,
            "type" : "SCALAR"
        },
        {
            "bufferView" : 12,
            "componentType" : 5126,
            "count" : 57,
            "max" : [
                0.9460186958312988,
                4.074276924133301,
                17.215681076049805
            ],
            "min" : [
                -0.9460186958312988,
                -5.985525131225586,
                -17.259851455688477
            ],
            "type" : "VEC3"
        },
        {
            "bufferView" : 13,
            "componentType" : 5126,
            "count" : 57,
            "type" : "VEC3"
        },
        {
            "bufferView" : 14,
            "componentType" : 5126,
            "count" : 57,
            "type" : "VEC2"
        },
        {
            "bufferView" : 15,
            "componentType" : 5123,
            "count" : 102,
            "type" : "SCALAR"
        },
        {
            "bufferView" : 16,
            "componentType" : 5126,
            "count" : 44,
            "max" : [
                0.8330777287483215,
                0.21382147073745728,
                1.4403975009918213
            ],
            "min" : [
                -0.0042586540803313255,
                -0.17872241139411926,
                -0.18989387154579163
            ],
            "type" : "VEC3"
        },
        {
            "bufferView" : 17,
            "componentType" : 5126,
            "count" : 44,
            "type" : "VEC3"
        },
        {
            "bufferView" : 18,
            "componentType" : 5126,
            "count" : 44,
            "type" : "VEC2"
        },
        {
            "bufferView" : 19,
            "componentType" : 5123,
            "count" : 78,
            "type" : "SCALAR"
        },
        {
            "bufferView" : 20,
            "componentType" : 5126,
            "count" : 44,
            "max" : [
                0.04988813400268555,
                7.13996696472168,
                1.911018625833094e-05
            ],
            "min" : [
                -0.48631125688552856,
                -6.940942764282227,
                -7.546722412109375
            ],
            "type" : "VEC3"
        },
        {
            "bufferView" : 21,
            "componentType" : 5126,
            "count" : 44,
            "type" : "VEC3"
        },
        {
            "bufferView" : 22,
            "componentType" : 5126,
            "count" : 44,
            "type" : "VEC2"
        },
        {
            "bufferView" : 23,
            "componentType" : 5123,
            "count" : 66,
            "type" : "SCALAR"
        },
        {
            "bufferView" : 24,
            "componentType" : 5126,
            "count" : 62,
            "max" : [
                0.946020781993866,
                4.074276924133301,
                17.259851455688477
            ],
            "min" : [
                -0.946020781993866,
                -5.985525131225586,
                -17.215681076049805
            ],
            "type" : "VEC3"
        },
        {
            "bufferView" : 25,
            "componentType" : 5126,
            "count" : 62,
            "type" : "VEC3"
        },
        {
            "bufferView" : 26,
            "componentType" : 5126,
            "count" : 62,
            "type" : "VEC2"
        },
        {
            "bufferView" : 27,
            "componentType" : 5123,
            "count" : 102,
            "type" : "SCALAR"
        }
    ],
    "bufferViews" : [
        {
            "buffer" : 0,
            "byteLength" : 1356,
            "byteOffset" : 0
        },
        {
            "buffer" : 0,
            "byteLength" : 1356,
            "byteOffset" : 1356
        },
        {
            "buffer" : 0,
            "byteLength" : 904,
            "byteOffset" : 2712
        },
        {
            "buffer" : 0,
            "byteLength" : 432,
            "byteOffset" : 3616
        },
        {
            "buffer" : 0,
            "byteLength" : 528,
            "byteOffset" : 4048
        },
        {
            "buffer" : 0,
            "byteLength" : 528,
            "byteOffset" : 4576
        },
        {
            "buffer" : 0,
            "byteLength" : 352,
            "byteOffset" : 5104
        },
        {
            "buffer" : 0,
            "byteLength" : 156,
            "byteOffset" : 5456
        },
        {
            "buffer" : 0,
            "byteLength" : 528,
            "byteOffset" : 5612
        },
        {
            "buffer" : 0,
            "byteLength" : 528,
            "byteOffset" : 6140
        },
        {
            "buffer" : 0,
            "byteLength" : 352,
            "byteOffset" : 6668
        },
        {
            "buffer" : 0,
            "byteLength" : 132,
            "byteOffset" : 7020
        },
        {
            "buffer" : 0,
            "byteLength" : 684,
            "byteOffset" : 7152
        },
        {
            "buffer" : 0,
            "byteLength" : 684,
            "byteOffset" : 7836
        },
        {
            "buffer" : 0,
            "byteLength" : 456,
            "byteOffset" : 8520
        },
        {
            "buffer" : 0,
            "byteLength" : 204,
            "byteOffset" : 8976
        },
        {
            "buffer" : 0,
            "byteLength" : 528,
            "byteOffset" : 9180
        },
        {
            "buffer" : 0,
            "byteLength" : 528,
            "byteOffset" : 9708
        },
        {
            "buffer" : 0,
            "byteLength" : 352,
            "byteOffset" : 10236
        },
        {
            "buffer" : 0,
            "byteLength" : 156,
            "byteOffset" : 10588
        },
        {
            "buffer" : 0,
            "byteLength" : 528,
            "byteOffset" : 10744
        },
        {
            "buffer" : 0,
            "byteLength" : 528,
            "byteOffset" : 11272
        },
        {
            "buffer" : 0,
            "byteLength" : 352,
            "byteOffset" : 11800
        },
        {
            "buffer" : 0,
            "byteLength" : 132,
            "byteOffset" : 12152
        },
        {
            "buffer" : 0,
            "byteLength" : 744,
            "byteOffset" : 12284
        },
        {
            "buffer" : 0,
            "byteLength" : 744,
            "byteOffset" : 13028
        },
        {
            "buffer" : 0,
            "byteLength" : 496,
            "byteOffset" : 13772
        },
        {
            "buffer" : 0,
            "byteLength" : 204,
            "byteOffset" : 14268
        }
    ],
    "buffers" : [
        {
            "byteLength" : 14472,
            "uri" : "data:application/octet-stream;base64,"
        }
    ]
}
