{
    "asset" : {
        "generator" : "Khronos glTF Blender I/O v1.6.16",
        "version" : "2.0"
    },
    "scene" : 0,
    "scenes" : [
        {
            "name" : "Scene",
            "nodes" : [
                0,
                1,
                3
            ]
        }
    ],
    "nodes" : [
        {
            "mesh" : 0,
            "name" : "couloir",
            "translation" : [
                -0.13937878608703613,
                6.409201145172119,
                -0.1506338119506836
            ]
        },
        {
            "mesh" : 1,
            "name" : "cadrePorte",
            "scale" : [
                0.2058822065591812,
                0.976079523563385,
                0.1630748212337494
            ],
            "translation" : [
                -8.027786254882812,
                5.0172929763793945,
                1.407304286956787
            ]
        },
        {
            "mesh" : 2,
            "name" : "poignee",
            "translation" : [
                6.6595778465271,
                0.02708578109741211,
                -1.1887741088867188
            ]
        },
        {
            "children" : [
                2
            ],
            "mesh" : 3,
            "name" : "porte",
            "rotation" : [
                0,
                -0.7071068286895752,
                0,
                0.7071068286895752
            ],
            "scale" : [
                0.6482017040252686,
                0.6482017040252686,
                0.6482017040252686
            ],
            "translation" : [
                -8.194979667663574,
                4.0538740158081055,
                -1.0355267524719238
            ]
        }
    ],
    "meshes" : [
        {
            "name" : "Cube.012",
            "primitives" : [
                {
                    "attributes" : {
                        "POSITION" : 0,
                        "NORMAL" : 1,
                        "TEXCOORD_0" : 2
                    },
                    "indices" : 3
                }
            ]
        },
        {
            "name" : "Cube",
            "primitives" : [
                {
                    "attributes" : {
                        "POSITION" : 4,
                        "NORMAL" : 5,
                        "TEXCOORD_0" : 6
                    },
                    "indices" : 7
                }
            ]
        },
        {
            "name" : "Cube.008",
            "primitives" : [
                {
                    "attributes" : {
                        "POSITION" : 8,
                        "NORMAL" : 9,
                        "TEXCOORD_0" : 10
                    },
                    "indices" : 11
                }
            ]
        },
        {
            "name" : "Cube.010",
            "primitives" : [
                {
                    "attributes" : {
                        "POSITION" : 12,
                        "NORMAL" : 13,
                        "TEXCOORD_0" : 14
                    },
                    "indices" : 15
                }
            ]
        }
    ],
    "accessors" : [
        {
            "bufferView" : 0,
            "componentType" : 5126,
            "count" : 85,
            "max" : [
                8.013376235961914,
                7.494467735290527,
                51.163352966308594
            ],
            "min" : [
                -8.020390510559082,
                -7.494466781616211,
                -51.16334533691406
            ],
            "type" : "VEC3"
        },
        {
            "bufferView" : 1,
            "componentType" : 5126,
            "count" : 85,
            "type" : "VEC3"
        },
        {
            "bufferView" : 2,
            "componentType" : 5126,
            "count" : 85,
            "type" : "VEC2"
        },
        {
            "bufferView" : 3,
            "componentType" : 5123,
            "count" : 156,
            "type" : "SCALAR"
        },
        {
            "bufferView" : 4,
            "componentType" : 5126,
            "count" : 57,
            "max" : [
                0.9460186958312988,
                4.074276924133301,
                17.215681076049805
            ],
            "min" : [
                -0.9460186958312988,
                -5.985525131225586,
                -17.259851455688477
            ],
            "type" : "VEC3"
        },
        {
            "bufferView" : 5,
            "componentType" : 5126,
            "count" : 57,
            "type" : "VEC3"
        },
        {
            "bufferView" : 6,
            "componentType" : 5126,
            "count" : 57,
            "type" : "VEC2"
        },
        {
            "bufferView" : 7,
            "componentType" : 5123,
            "count" : 102,
            "type" : "SCALAR"
        },
        {
            "bufferView" : 8,
            "componentType" : 5126,
            "count" : 40,
            "max" : [
                0.1898937225341797,
                0.2138214111328125,
                0.8330774307250977
            ],
            "min" : [
                -1.4403972625732422,
                -0.17872238159179688,
                -0.004258632659912109
            ],
            "type" : "VEC3"
        },
        {
            "bufferView" : 9,
            "componentType" : 5126,
            "count" : 40,
            "type" : "VEC3"
        },
        {
            "bufferView" : 10,
            "componentType" : 5126,
            "count" : 40,
            "type" : "VEC2"
        },
        {
            "bufferView" : 11,
            "componentType" : 5123,
            "count" : 78,
            "type" : "SCALAR"
        },
        {
            "bufferView" : 12,
            "componentType" : 5126,
            "count" : 44,
            "max" : [
                7.546722412109375,
                7.13996696472168,
                0.04988813400268555
            ],
            "min" : [
                -1.9073486328125e-05,
                -6.940942764282227,
                -0.4863104820251465
            ],
            "type" : "VEC3"
        },
        {
            "bufferView" : 13,
            "componentType" : 5126,
            "count" : 44,
            "type" : "VEC3"
        },
        {
            "bufferView" : 14,
            "componentType" : 5126,
            "count" : 44,
            "type" : "VEC2"
        },
        {
            "bufferView" : 15,
            "componentType" : 5123,
            "count" : 66,
            "type" : "SCALAR"
        }
    ],
    "bufferViews" : [
        {
            "buffer" : 0,
            "byteLength" : 1020,
            "byteOffset" : 0
        },
        {
            "buffer" : 0,
            "byteLength" : 1020,
            "byteOffset" : 1020
        },
        {
            "buffer" : 0,
            "byteLength" : 680,
            "byteOffset" : 2040
        },
        {
            "buffer" : 0,
            "byteLength" : 312,
            "byteOffset" : 2720
        },
        {
            "buffer" : 0,
            "byteLength" : 684,
            "byteOffset" : 3032
        },
        {
            "buffer" : 0,
            "byteLength" : 684,
            "byteOffset" : 3716
        },
        {
            "buffer" : 0,
            "byteLength" : 456,
            "byteOffset" : 4400
        },
        {
            "buffer" : 0,
            "byteLength" : 204,
            "byteOffset" : 4856
        },
        {
            "buffer" : 0,
            "byteLength" : 480,
            "byteOffset" : 5060
        },
        {
            "buffer" : 0,
            "byteLength" : 480,
            "byteOffset" : 5540
        },
        {
            "buffer" : 0,
            "byteLength" : 320,
            "byteOffset" : 6020
        },
        {
            "buffer" : 0,
            "byteLength" : 156,
            "byteOffset" : 6340
        },
        {
            "buffer" : 0,
            "byteLength" : 528,
            "byteOffset" : 6496
        },
        {
            "buffer" : 0,
            "byteLength" : 528,
            "byteOffset" : 7024
        },
        {
            "buffer" : 0,
            "byteLength" : 352,
            "byteOffset" : 7552
        },
        {
            "buffer" : 0,
            "byteLength" : 132,
            "byteOffset" : 7904
        }
    ],
    "buffers" : [
        {
            "byteLength" : 8036,
            "uri" : "data:application/octet-stream;base64,"
        }
    ]
}
