{
    "asset" : {
        "generator" : "Khronos glTF Blender I/O v1.6.16",
        "version" : "2.0"
    },
    "scene" : 0,
    "scenes" : [
        {
            "name" : "Scene",
            "nodes" : [
                0,
                1,
                2,
                3,
                4,
                5,
                6,
                7,
                8,
                9,
                10
            ]
        }
    ],
    "nodes" : [
        {
            "mesh" : 0,
            "name" : "sable",
            "scale" : [
                2.229966878890991,
                2.229966878890991,
                2.229966878890991
            ]
        },
        {
            "mesh" : 1,
            "name" : "Cylinder",
            "rotation" : [
                0.03404516354203224,
                -0.3971042037010193,
                0.18799687922000885,
                0.8976671695709229
            ],
            "scale" : [
                0.0111955301836133,
                -0.24292267858982086,
                0.010837487876415253
            ],
            "translation" : [
                0,
                0.1985352337360382,
                0
            ]
        },
        {
            "mesh" : 2,
            "name" : "Cone",
            "rotation" : [
                -0.04153513163328171,
                0.0017988965846598148,
                0.12860208749771118,
                0.9908244609832764
            ],
            "scale" : [
                0.22768479585647583,
                0.05464214086532593,
                0.22768479585647583
            ],
            "translation" : [
                -0.07924889028072357,
                0.38192158937454224,
                -0.024733174592256546
            ]
        },
        {
            "mesh" : 3,
            "name" : "Cylinder.001",
            "rotation" : [
                -0.09043543040752411,
                -0.4966300427913666,
                -0.036578480154275894,
                0.8624627590179443
            ],
            "scale" : [
                0.0111955301836133,
                -0.24292267858982086,
                0.010837487876415253
            ],
            "translation" : [
                1.3368016481399536,
                0.14062084257602692,
                -0.01388479769229889
            ]
        },
        {
            "mesh" : 4,
            "name" : "Cone.001",
            "rotation" : [
                -0.0574311837553978,
                -0.10562149435281754,
                -0.12682659924030304,
                0.984611988067627
            ],
            "scale" : [
                0.22768479585647583,
                0.05464214086532593,
                0.22768479585647583
            ],
            "translation" : [
                1.3626612424850464,
                0.3376094698905945,
                -0.0462799072265625
            ]
        },
        {
            "mesh" : 5,
            "name" : "Cylinder.002",
            "rotation" : [
                -0.04487081617116928,
                -0.46789610385894775,
                0.05012135207653046,
                0.8812194466590881
            ],
            "scale" : [
                0.0111955301836133,
                -0.24292267858982086,
                0.010837487876415253
            ],
            "translation" : [
                0.6711574196815491,
                0.1401194930076599,
                -0.013458209112286568
            ]
        },
        {
            "mesh" : 6,
            "name" : "Cone.002",
            "rotation" : [
                -0.05314045026898384,
                -0.07101389020681381,
                -0.02970159985125065,
                0.9956159591674805
            ],
            "scale" : [
                0.22768479585647583,
                0.05464214086532593,
                0.22768479585647583
            ],
            "translation" : [
                0.6564376950263977,
                0.3381108045578003,
                -0.04670649766921997
            ]
        },
        {
            "mesh" : 7,
            "name" : "Cylinder.003",
            "rotation" : [
                -0.09043543040752411,
                -0.4966300427913666,
                -0.036578480154275894,
                0.8624627590179443
            ],
            "scale" : [
                0.0111955301836133,
                -0.24292267858982086,
                0.010837487876415253
            ],
            "translation" : [
                -0.7936924695968628,
                0.14062084257602692,
                -0.01388479769229889
            ]
        },
        {
            "mesh" : 8,
            "name" : "Cone.003",
            "rotation" : [
                -0.0574311837553978,
                -0.10562149435281754,
                -0.12682659924030304,
                0.984611988067627
            ],
            "scale" : [
                0.22768479585647583,
                0.05464214086532593,
                0.22768479585647583
            ],
            "translation" : [
                -0.76783287525177,
                0.3376094698905945,
                -0.0462799072265625
            ]
        },
        {
            "mesh" : 9,
            "name" : "Cylinder.004",
            "rotation" : [
                -0.04487081617116928,
                -0.46789610385894775,
                0.05012135207653046,
                0.8812194466590881
            ],
            "scale" : [
                0.0111955301836133,
                -0.24292267858982086,
                0.010837487876415253
            ],
            "translation" : [
                -1.459336757659912,
                0.1401194930076599,
                -0.013458209112286568
            ]
        },
        {
            "mesh" : 10,
            "name" : "Cone.004",
            "rotation" : [
                -0.05314045026898384,
                -0.07101389020681381,
                -0.02970159985125065,
                0.9956159591674805
            ],
            "scale" : [
                0.22768479585647583,
                0.05464214086532593,
                0.22768479585647583
            ],
            "translation" : [
                -1.4740564823150635,
                0.3381108045578003,
                -0.04670649766921997
            ]
        }
    ],
    "meshes" : [
        {
            "name" : "Plane",
            "primitives" : [
                {
                    "attributes" : {
                        "POSITION" : 0,
                        "NORMAL" : 1,
                        "TEXCOORD_0" : 2
                    },
                    "indices" : 3
                }
            ]
        },
        {
            "name" : "Cylinder",
            "primitives" : [
                {
                    "attributes" : {
                        "POSITION" : 4,
                        "NORMAL" : 5,
                        "TEXCOORD_0" : 6
                    },
                    "indices" : 7
                }
            ]
        },
        {
            "name" : "Cone",
            "primitives" : [
                {
                    "attributes" : {
                        "POSITION" : 8,
                        "NORMAL" : 9,
                        "TEXCOORD_0" : 10
                    },
                    "indices" : 11
                }
            ]
        },
        {
            "name" : "Cylinder.001",
            "primitives" : [
                {
                    "attributes" : {
                        "POSITION" : 12,
                        "NORMAL" : 13,
                        "TEXCOORD_0" : 14
                    },
                    "indices" : 7
                }
            ]
        },
        {
            "name" : "Cone.001",
            "primitives" : [
                {
                    "attributes" : {
                        "POSITION" : 15,
                        "NORMAL" : 16,
                        "TEXCOORD_0" : 17
                    },
                    "indices" : 11
                }
            ]
        },
        {
            "name" : "Cylinder.002",
            "primitives" : [
                {
                    "attributes" : {
                        "POSITION" : 18,
                        "NORMAL" : 19,
                        "TEXCOORD_0" : 20
                    },
                    "indices" : 7
                }
            ]
        },
        {
            "name" : "Cone.002",
            "primitives" : [
                {
                    "attributes" : {
                        "POSITION" : 21,
                        "NORMAL" : 22,
                        "TEXCOORD_0" : 23
                    },
                    "indices" : 11
                }
            ]
        },
        {
            "name" : "Cylinder.003",
            "primitives" : [
                {
                    "attributes" : {
                        "POSITION" : 24,
                        "NORMAL" : 25,
                        "TEXCOORD_0" : 26
                    },
                    "indices" : 7
                }
            ]
        },
        {
            "name" : "Cone.003",
            "primitives" : [
                {
                    "attributes" : {
                        "POSITION" : 27,
                        "NORMAL" : 28,
                        "TEXCOORD_0" : 29
                    },
                    "indices" : 11
                }
            ]
        },
        {
            "name" : "Cylinder.004",
            "primitives" : [
                {
                    "attributes" : {
                        "POSITION" : 30,
                        "NORMAL" : 31,
                        "TEXCOORD_0" : 32
                    },
                    "indices" : 7
                }
            ]
        },
        {
            "name" : "Cone.004",
            "primitives" : [
                {
                    "attributes" : {
                        "POSITION" : 33,
                        "NORMAL" : 34,
                        "TEXCOORD_0" : 35
                    },
                    "indices" : 11
                }
            ]
        }
    ],
    "accessors" : [
        {
            "bufferView" : 0,
            "componentType" : 5126,
            "count" : 65536,
            "max" : [
                1.0000001192092896,
                0.048859789967536926,
                1.0000001192092896
            ],
            "min" : [
                -1.0000001192092896,
                0.006750220432877541,
                -1.0000001192092896
            ],
            "type" : "VEC3"
        },
        {
            "bufferView" : 1,
            "componentType" : 5126,
            "count" : 65536,
            "type" : "VEC3"
        },
        {
            "bufferView" : 2,
            "componentType" : 5126,
            "count" : 65536,
            "type" : "VEC2"
        },
        {
            "bufferView" : 3,
            "componentType" : 5125,
            "count" : 98304,
            "type" : "SCALAR"
        },
        {
            "bufferView" : 4,
            "componentType" : 5126,
            "count" : 192,
            "max" : [
                1,
                1,
                1
            ],
            "min" : [
                -1,
                -1,
                -1
            ],
            "type" : "VEC3"
        },
        {
            "bufferView" : 5,
            "componentType" : 5126,
            "count" : 192,
            "type" : "VEC3"
        },
        {
            "bufferView" : 6,
            "componentType" : 5126,
            "count" : 192,
            "type" : "VEC2"
        },
        {
            "bufferView" : 7,
            "componentType" : 5123,
            "count" : 372,
            "type" : "SCALAR"
        },
        {
            "bufferView" : 8,
            "componentType" : 5126,
            "count" : 30,
            "max" : [
                0.9510565400123596,
                1,
                1
            ],
            "min" : [
                -0.9510564804077148,
                -1,
                -1
            ],
            "type" : "VEC3"
        },
        {
            "bufferView" : 9,
            "componentType" : 5126,
            "count" : 30,
            "type" : "VEC3"
        },
        {
            "bufferView" : 10,
            "componentType" : 5126,
            "count" : 30,
            "type" : "VEC2"
        },
        {
            "bufferView" : 11,
            "componentType" : 5123,
            "count" : 30,
            "type" : "SCALAR"
        },
        {
            "bufferView" : 12,
            "componentType" : 5126,
            "count" : 192,
            "max" : [
                1,
                1,
                1
            ],
            "min" : [
                -1,
                -1,
                -1
            ],
            "type" : "VEC3"
        },
        {
            "bufferView" : 13,
            "componentType" : 5126,
            "count" : 192,
            "type" : "VEC3"
        },
        {
            "bufferView" : 14,
            "componentType" : 5126,
            "count" : 192,
            "type" : "VEC2"
        },
        {
            "bufferView" : 15,
            "componentType" : 5126,
            "count" : 30,
            "max" : [
                0.9510565400123596,
                1,
                1
            ],
            "min" : [
                -0.9510564804077148,
                -1,
                -1
            ],
            "type" : "VEC3"
        },
        {
            "bufferView" : 16,
            "componentType" : 5126,
            "count" : 30,
            "type" : "VEC3"
        },
        {
            "bufferView" : 17,
            "componentType" : 5126,
            "count" : 30,
            "type" : "VEC2"
        },
        {
            "bufferView" : 18,
            "componentType" : 5126,
            "count" : 192,
            "max" : [
                1,
                1,
                1
            ],
            "min" : [
                -1,
                -1,
                -1
            ],
            "type" : "VEC3"
        },
        {
            "bufferView" : 19,
            "componentType" : 5126,
            "count" : 192,
            "type" : "VEC3"
        },
        {
            "bufferView" : 20,
            "componentType" : 5126,
            "count" : 192,
            "type" : "VEC2"
        },
        {
            "bufferView" : 21,
            "componentType" : 5126,
            "count" : 30,
            "max" : [
                0.9510565400123596,
                1,
                1
            ],
            "min" : [
                -0.9510564804077148,
                -1,
                -1
            ],
            "type" : "VEC3"
        },
        {
            "bufferView" : 22,
            "componentType" : 5126,
            "count" : 30,
            "type" : "VEC3"
        },
        {
            "bufferView" : 23,
            "componentType" : 5126,
            "count" : 30,
            "type" : "VEC2"
        },
        {
            "bufferView" : 24,
            "componentType" : 5126,
            "count" : 192,
            "max" : [
                1,
                1,
                1
            ],
            "min" : [
                -1,
                -1,
                -1
            ],
            "type" : "VEC3"
        },
        {
            "bufferView" : 25,
            "componentType" : 5126,
            "count" : 192,
            "type" : "VEC3"
        },
        {
            "bufferView" : 26,
            "componentType" : 5126,
            "count" : 192,
            "type" : "VEC2"
        },
        {
            "bufferView" : 27,
            "componentType" : 5126,
            "count" : 30,
            "max" : [
                0.9510565400123596,
                1,
                1
            ],
            "min" : [
                -0.9510564804077148,
                -1,
                -1
            ],
            "type" : "VEC3"
        },
        {
            "bufferView" : 28,
            "componentType" : 5126,
            "count" : 30,
            "type" : "VEC3"
        },
        {
            "bufferView" : 29,
            "componentType" : 5126,
            "count" : 30,
            "type" : "VEC2"
        },
        {
            "bufferView" : 30,
            "componentType" : 5126,
            "count" : 192,
            "max" : [
                1,
                1,
                1
            ],
            "min" : [
                -1,
                -1,
                -1
            ],
            "type" : "VEC3"
        },
        {
            "bufferView" : 31,
            "componentType" : 5126,
            "count" : 192,
            "type" : "VEC3"
        },
        {
            "bufferView" : 32,
            "componentType" : 5126,
            "count" : 192,
            "type" : "VEC2"
        },
        {
            "bufferView" : 33,
            "componentType" : 5126,
            "count" : 30,
            "max" : [
                0.9510565400123596,
                1,
                1
            ],
            "min" : [
                -0.9510564804077148,
                -1,
                -1
            ],
            "type" : "VEC3"
        },
        {
            "bufferView" : 34,
            "componentType" : 5126,
            "count" : 30,
            "type" : "VEC3"
        },
        {
            "bufferView" : 35,
            "componentType" : 5126,
            "count" : 30,
            "type" : "VEC2"
        }
    ],
    "bufferViews" : [
        {
            "buffer" : 0,
            "byteLength" : 786432,
            "byteOffset" : 0
        },
        {
            "buffer" : 0,
            "byteLength" : 786432,
            "byteOffset" : 786432
        },
        {
            "buffer" : 0,
            "byteLength" : 524288,
            "byteOffset" : 1572864
        },
        {
            "buffer" : 0,
            "byteLength" : 393216,
            "byteOffset" : 2097152
        },
        {
            "buffer" : 0,
            "byteLength" : 2304,
            "byteOffset" : 2490368
        },
        {
            "buffer" : 0,
            "byteLength" : 2304,
            "byteOffset" : 2492672
        },
        {
            "buffer" : 0,
            "byteLength" : 1536,
            "byteOffset" : 2494976
        },
        {
            "buffer" : 0,
            "byteLength" : 744,
            "byteOffset" : 2496512
        },
        {
            "buffer" : 0,
            "byteLength" : 360,
            "byteOffset" : 2497256
        },
        {
            "buffer" : 0,
            "byteLength" : 360,
            "byteOffset" : 2497616
        },
        {
            "buffer" : 0,
            "byteLength" : 240,
            "byteOffset" : 2497976
        },
        {
            "buffer" : 0,
            "byteLength" : 60,
            "byteOffset" : 2498216
        },
        {
            "buffer" : 0,
            "byteLength" : 2304,
            "byteOffset" : 2498276
        },
        {
            "buffer" : 0,
            "byteLength" : 2304,
            "byteOffset" : 2500580
        },
        {
            "buffer" : 0,
            "byteLength" : 1536,
            "byteOffset" : 2502884
        },
        {
            "buffer" : 0,
            "byteLength" : 360,
            "byteOffset" : 2504420
        },
        {
            "buffer" : 0,
            "byteLength" : 360,
            "byteOffset" : 2504780
        },
        {
            "buffer" : 0,
            "byteLength" : 240,
            "byteOffset" : 2505140
        },
        {
            "buffer" : 0,
            "byteLength" : 2304,
            "byteOffset" : 2505380
        },
        {
            "buffer" : 0,
            "byteLength" : 2304,
            "byteOffset" : 2507684
        },
        {
            "buffer" : 0,
            "byteLength" : 1536,
            "byteOffset" : 2509988
        },
        {
            "buffer" : 0,
            "byteLength" : 360,
            "byteOffset" : 2511524
        },
        {
            "buffer" : 0,
            "byteLength" : 360,
            "byteOffset" : 2511884
        },
        {
            "buffer" : 0,
            "byteLength" : 240,
            "byteOffset" : 2512244
        },
        {
            "buffer" : 0,
            "byteLength" : 2304,
            "byteOffset" : 2512484
        },
        {
            "buffer" : 0,
            "byteLength" : 2304,
            "byteOffset" : 2514788
        },
        {
            "buffer" : 0,
            "byteLength" : 1536,
            "byteOffset" : 2517092
        },
        {
            "buffer" : 0,
            "byteLength" : 360,
            "byteOffset" : 2518628
        },
        {
            "buffer" : 0,
            "byteLength" : 360,
            "byteOffset" : 2518988
        },
        {
            "buffer" : 0,
            "byteLength" : 240,
            "byteOffset" : 2519348
        },
        {
            "buffer" : 0,
            "byteLength" : 2304,
            "byteOffset" : 2519588
        },
        {
            "buffer" : 0,
            "byteLength" : 2304,
            "byteOffset" : 2521892
        },
        {
            "buffer" : 0,
            "byteLength" : 1536,
            "byteOffset" : 2524196
        },
        {
            "buffer" : 0,
            "byteLength" : 360,
            "byteOffset" : 2525732
        },
        {
            "buffer" : 0,
            "byteLength" : 360,
            "byteOffset" : 2526092
        },
        {
            "buffer" : 0,
            "byteLength" : 240,
            "byteOffset" : 2526452
        }
    ],
    "buffers" : [
        {
            "byteLength" : 2526692,
            "uri" : "data:application/octet-stream;base64,"
        }
    ]
}
