{
    "asset" : {
        "generator" : "Khronos glTF Blender I/O v1.6.16",
        "version" : "2.0"
    },
    "scene" : 0,
    "scenes" : [
        {
            "name" : "Scene",
            "nodes" : [
                0
            ]
        }
    ],
    "nodes" : [
        {
            "mesh" : 0,
            "name" : "20",
            "scale" : [
                9.25398063659668,
                9.25398063659668,
                9.25398063659668
            ],
            "translation" : [
                -0.5587310791015625,
                -0.8226208686828613,
                0.35092926025390625
            ]
        }
    ],
    "meshes" : [
        {
            "name" : "Text",
            "primitives" : [
                {
                    "attributes" : {
                        "POSITION" : 0,
                        "NORMAL" : 1,
                        "TEXCOORD_0" : 2
                    },
                    "indices" : 3
                }
            ]
        }
    ],
    "accessors" : [
        {
            "bufferView" : 0,
            "componentType" : 5126,
            "count" : 3590,
            "max" : [
                0.8706059455871582,
                0.11999998241662979,
                0.023776862770318985
            ],
            "min" : [
                0.013691451400518417,
                -0.11999998241662979,
                -0.7896202206611633
            ],
            "type" : "VEC3"
        },
        {
            "bufferView" : 1,
            "componentType" : 5126,
            "count" : 3590,
            "type" : "VEC3"
        },
        {
            "bufferView" : 2,
            "componentType" : 5126,
            "count" : 3590,
            "type" : "VEC2"
        },
        {
            "bufferView" : 3,
            "componentType" : 5123,
            "count" : 14328,
            "type" : "SCALAR"
        }
    ],
    "bufferViews" : [
        {
            "buffer" : 0,
            "byteLength" : 43080,
            "byteOffset" : 0
        },
        {
            "buffer" : 0,
            "byteLength" : 43080,
            "byteOffset" : 43080
        },
        {
            "buffer" : 0,
            "byteLength" : 28720,
            "byteOffset" : 86160
        },
        {
            "buffer" : 0,
            "byteLength" : 28656,
            "byteOffset" : 114880
        }
    ],
    "buffers" : [
        {
            "byteLength" : 143536,
            "uri" : "data:application/octet-stream;base64,"
        }
    ]
}
