{
    "asset" : {
        "generator" : "Khronos glTF Blender I/O v1.6.16",
        "version" : "2.0"
    },
    "scene" : 0,
    "scenes" : [
        {
            "name" : "Scene",
            "nodes" : [
                0,
                1
            ]
        }
    ],
    "nodes" : [
        {
            "mesh" : 0,
            "name" : "baton"
        },
        {
            "mesh" : 1,
            "name" : "tissu",
            "translation" : [
                0,
                1.209999918937683,
                0
            ]
        }
    ],
    "meshes" : [
        {
            "name" : "Cylinder.001",
            "primitives" : [
                {
                    "attributes" : {
                        "POSITION" : 0,
                        "NORMAL" : 1,
                        "TEXCOORD_0" : 2
                    },
                    "indices" : 3
                }
            ]
        },
        {
            "name" : "Cone",
            "primitives" : [
                {
                    "attributes" : {
                        "POSITION" : 4,
                        "NORMAL" : 5,
                        "TEXCOORD_0" : 6
                    },
                    "indices" : 7
                }
            ]
        }
    ],
    "accessors" : [
        {
            "bufferView" : 0,
            "componentType" : 5126,
            "count" : 99,
            "max" : [
                0.02969464287161827,
                1.3602818250656128,
                0.02878478914499283
            ],
            "min" : [
                -0.02969464287161827,
                -0.8507720232009888,
                -0.029999999329447746
            ],
            "type" : "VEC3"
        },
        {
            "bufferView" : 1,
            "componentType" : 5126,
            "count" : 99,
            "type" : "VEC3"
        },
        {
            "bufferView" : 2,
            "componentType" : 5126,
            "count" : 99,
            "type" : "VEC2"
        },
        {
            "bufferView" : 3,
            "componentType" : 5123,
            "count" : 159,
            "type" : "SCALAR"
        },
        {
            "bufferView" : 4,
            "componentType" : 5126,
            "count" : 48,
            "max" : [
                0.7700000405311584,
                0.12771400809288025,
                0.7700000405311584
            ],
            "min" : [
                -0.7700000405311584,
                -0.13500003516674042,
                -0.7700000405311584
            ],
            "type" : "VEC3"
        },
        {
            "bufferView" : 5,
            "componentType" : 5126,
            "count" : 48,
            "type" : "VEC3"
        },
        {
            "bufferView" : 6,
            "componentType" : 5126,
            "count" : 48,
            "type" : "VEC2"
        },
        {
            "bufferView" : 7,
            "componentType" : 5123,
            "count" : 72,
            "type" : "SCALAR"
        }
    ],
    "bufferViews" : [
        {
            "buffer" : 0,
            "byteLength" : 1188,
            "byteOffset" : 0
        },
        {
            "buffer" : 0,
            "byteLength" : 1188,
            "byteOffset" : 1188
        },
        {
            "buffer" : 0,
            "byteLength" : 792,
            "byteOffset" : 2376
        },
        {
            "buffer" : 0,
            "byteLength" : 318,
            "byteOffset" : 3168
        },
        {
            "buffer" : 0,
            "byteLength" : 576,
            "byteOffset" : 3488
        },
        {
            "buffer" : 0,
            "byteLength" : 576,
            "byteOffset" : 4064
        },
        {
            "buffer" : 0,
            "byteLength" : 384,
            "byteOffset" : 4640
        },
        {
            "buffer" : 0,
            "byteLength" : 144,
            "byteOffset" : 5024
        }
    ],
    "buffers" : [
        {
            "byteLength" : 5168,
            "uri" : "data:application/octet-stream;base64,"
        }
    ]
}
