<?xml version="1.0" standalone="no"?>
<!DOCTYPE svg PUBLIC "-//W3C//DTD SVG 1.1//EN" "http://www.w3.org/Graphics/SVG/1.1/DTD/svg11.dtd" >
<svg xmlns="http://www.w3.org/2000/svg" xmlns:xlink="http://www.w3.org/1999/xlink" version="1.1">
<metadata>
Created by FontForge 20170731 at Mon Jan 10 18:36:22 2022
 By Aleksey,,,
Miguel Hernandez Montoya All Rights Reserved. Todos los Derechos Reservados. 2019
</metadata>
<defs>
<font id="Paro-Regular" horiz-adv-x="802" >
  <font-face 
    font-family="Paro-Regular"
    font-weight="400"
    font-stretch="normal"
    units-per-em="2048"
    panose-1="1 0 0 0 0 0 0 0 0 0"
    ascent="1638"
    descent="-410"
    x-height="1253"
    cap-height="1391"
    bbox="-47 -205 1382 1610"
    underline-thickness="102"
    underline-position="-358"
    unicode-range="U+0020-FB02"
  />
<missing-glyph horiz-adv-x="1024" 
 />
    <glyph glyph-name="fi" unicode="fi" horiz-adv-x="788" 
d="M86 -2v1003l-74 3v249h82v86q0 92 57.5 144.5t182.5 52.5h74l30 -205h-78q-28 0 -39.5 -11.5t-11.5 -37.5v-29h121v-249l-90 -3v-1003h-254zM459 1393q0 56 37 85t122 29q164 0 164 -114q0 -113 -164 -113q-86 0 -122.5 29t-36.5 84zM492 0v1233q54 -21 126 -21
q69 0 127 21v-1233h-253z" />
    <glyph glyph-name="fl" unicode="fl" horiz-adv-x="786" 
d="M86 -2v1003l-74 3v249h82v86q0 92 57.5 144.5t182.5 52.5h74l30 -205h-78q-28 0 -39.5 -11.5t-11.5 -37.5v-29h121v-249l-90 -3v-1003h-254zM485 256v1219h254v-1256q0 -73 7.5 -115t27.5 -104h-256q-20 57 -26.5 104t-6.5 152z" />
    <glyph glyph-name=".notdef" horiz-adv-x="1024" 
 />
    <glyph glyph-name=".null" horiz-adv-x="0" 
 />
    <glyph glyph-name="nonmarkingreturn" horiz-adv-x="682" 
 />
    <glyph glyph-name="space" unicode=" " horiz-adv-x="327" 
 />
    <glyph glyph-name="space" unicode="&#xa0;" horiz-adv-x="327" 
 />
    <glyph glyph-name="exclam" unicode="!" horiz-adv-x="286" 
d="M141 -25q-54 0 -81 37.5t-27 124.5q0 143 92 156l-21 1122h72l-20 -1122q98 -10 98 -156q0 -162 -113 -162z" />
    <glyph glyph-name="quotedbl" unicode="&#x22;" horiz-adv-x="262" 
d="M176 874l-12 613h55l-12 -613h-31zM43 1487h55l-12 -613h-31z" />
    <glyph glyph-name="numbersign" unicode="#" horiz-adv-x="868" 
d="M94 0l113 451h-193v36h203l102 414h-198v37h209l112 453h41l-112 -453h245l113 453h41l-113 -453h197v-37h-207l-102 -414h203v-36h-213l-113 -451h-41l113 451h-246l-113 -451h-41zM258 487h246l102 414h-246z" />
    <glyph glyph-name="dollar" unicode="$" horiz-adv-x="647" 
d="M297 -143l-37 2l6 123q-221 44 -221 380v193h61v-193q0 -285 164 -329l37 688l-45 10q-115 27 -167 113t-52 237q0 157 73.5 245.5t202.5 88.5h25l6 127l37 -2l-6 -129q205 -37 205 -346v-145h-62v137q0 136 -36.5 209t-110.5 92l-31 -588l23 -6q135 -32 185 -118.5
t50 -283.5q0 -387 -272 -387q-19 0 -29 2zM104 1081q0 -133 40 -203t130 -92l35 -8l31 586h-21q-101 0 -158 -73.5t-57 -209.5zM305 29q10 -2 27 -2q107 0 159 80t52 255q0 176 -40 249t-147 98l-14 4z" />
    <glyph glyph-name="percent" unicode="%" horiz-adv-x="980" 
d="M285 0l190 694l158 697h61l-192 -697l-156 -694h-61zM43 850v389q0 82 49 129t135 47t135.5 -47t49.5 -129v-389q0 -82 -49.5 -129t-135.5 -47t-135 47t-49 129zM172 874q0 -30 15 -46.5t40 -16.5t40.5 16.5t15.5 46.5v340q0 30 -15.5 47t-40.5 17t-40 -17t-15 -47v-340z
M569 152v389q0 82 49.5 129t135.5 47t135 -47t49 -129v-389q0 -82 -49 -129.5t-135 -47.5t-135.5 47.5t-49.5 129.5zM698 176q0 -30 15.5 -46.5t40.5 -16.5t40 16.5t15 46.5v340q0 30 -15 47t-40 17t-40.5 -17t-15.5 -47v-340z" />
    <glyph glyph-name="ampersand" unicode="&#x26;" horiz-adv-x="647" 
d="M270 -25q-119 0 -173 94t-54 293q0 129 5.5 204.5t23.5 129t43.5 82.5t72.5 60l-28 63q-33 70 -45.5 123.5t-12.5 138.5q0 114 53 183t152 69q96 0 145.5 -61t49.5 -178q0 -108 -35 -175t-133 -131l-70 -47l219 -471q43 188 66 490h61q-38 -380 -90 -570l127 -272h-69
l-86 184q-39 -110 -93.5 -159.5t-128.5 -49.5zM104 362q0 -183 42 -259t128 -76q54 0 100.5 49.5t84.5 179.5l-248 532q-47 -33 -68 -73t-30 -118.5t-9 -234.5zM164 1163q0 -86 9 -125.5t44 -113.5l25 -52l69 43q77 49 106 105.5t29 150.5q0 97 -38 145t-101 48
q-66 0 -104.5 -51t-38.5 -150z" />
    <glyph glyph-name="quotesingle" unicode="'" horiz-adv-x="141" 
d="M55 874l-12 613h55l-12 -613h-31z" />
    <glyph glyph-name="parenleft" unicode="(" horiz-adv-x="495" 
d="M324 0q-122 0 -180 68.5t-58 193.5v891q0 125 58 193.5t180 68.5h86v-51h-86q-177 0 -177 -211v-891q0 -211 177 -211h86v-51h-86z" />
    <glyph glyph-name="parenright" unicode=")" horiz-adv-x="495" 
d="M86 0v51h86q92 0 134 53.5t42 157.5v891q0 104 -42 157.5t-134 53.5h-86v51h86q122 0 180 -68.5t58 -193.5v-891q0 -125 -58 -193.5t-180 -68.5h-86z" />
    <glyph glyph-name="asterisk" unicode="*" horiz-adv-x="724" 
d="M342 694v299l-211 -211l-29 29l211 211h-299v41h299l-211 211l29 29l211 -211v299h41v-299l211 211l29 -29l-211 -211h299v-41h-299l211 -211l-29 -29l-211 211v-299h-41z" />
    <glyph glyph-name="plus" unicode="+" horiz-adv-x="573" 
d="M268 451v225h-225v37h225v225h37v-225h225v-37h-225v-225h-37z" />
    <glyph glyph-name="comma" unicode="," horiz-adv-x="286" 
d="M90 -145l68 112v8h-17q-54 0 -81 37.5t-27 124.5q0 84 27 120t81 36q113 0 113 -156q0 -124 -57 -219l-41 -63h-66z" />
    <glyph glyph-name="hyphen" unicode="-" horiz-adv-x="352" 
d="M43 676v37h266v-37h-266z" />
    <glyph glyph-name="period" unicode="." horiz-adv-x="286" 
d="M141 -25q-54 0 -81 37.5t-27 124.5q0 84 27 120t81 36q113 0 113 -156q0 -162 -113 -162z" />
    <glyph glyph-name="slash" unicode="/" horiz-adv-x="677" 
d="M12 0l314 696l274 695h66l-314 -697l-274 -694h-66z" />
    <glyph glyph-name="zero" unicode="0" 
d="M401 -25q-166 0 -262 92t-96 250v756q0 158 96 250t262 92t262.5 -92t96.5 -250v-756q0 -158 -96.5 -250t-262.5 -92zM295 367q0 -60 28.5 -91.5t77.5 -31.5t78 31.5t29 91.5v657q0 60 -29 91.5t-78 31.5t-77.5 -31.5t-28.5 -91.5v-657z" />
    <glyph glyph-name="one" unicode="1" horiz-adv-x="505" 
d="M209 0v1071h-195v195h74q68 0 95 29.5t30 95.5h250v-1391h-254z" />
    <glyph glyph-name="two" unicode="2" 
d="M43 143q0 182 40.5 284.5t141.5 186.5l183 150q62 50 81 85.5t19 96.5v86q0 53 -28.5 84t-76.5 31q-46 0 -75 -31t-29 -84v-139h-244v147q0 190 96 282.5t257 92.5q352 0 352 -401q0 -127 -43.5 -229t-161.5 -199l-174 -144q-43 -36 -56.5 -73t-13.5 -90h447v-279h-715
v143z" />
    <glyph glyph-name="three" unicode="3" horiz-adv-x="817" 
d="M399 -25q-176 0 -266 106.5t-90 283.5v190h246v-178q0 -63 27.5 -97t78.5 -34q50 0 76.5 34.5t26.5 96.5v127q0 63 -22.5 97t-80.5 34h-37v217h43q55 0 78 30.5t23 90.5v49q0 58 -26.5 87.5t-74.5 29.5t-78 -29.5t-30 -87.5v-100h-244v127q0 171 97.5 267.5t259.5 96.5
q175 0 267.5 -96.5t92.5 -282.5q0 -114 -47.5 -179.5t-175.5 -84.5v-8q137 -34 181 -103t44 -231q0 -234 -88 -343.5t-281 -109.5z" />
    <glyph glyph-name="four" unicode="4" horiz-adv-x="739" 
d="M401 0v147h-368v263l327 981h295v-1026h72v-218h-72v-147h-254zM244 365h157l2 540h-12l-147 -532v-8z" />
    <glyph glyph-name="five" unicode="5" horiz-adv-x="792" 
d="M381 -25q-89 0 -155 28.5t-105.5 81.5t-58.5 122.5t-19 157.5v190h227v-178q0 -63 28 -97t79 -34q50 0 76 34t26 97v198q0 91 -30.5 138t-104.5 47h-268v631h653v-246h-418l2 -170h86q133 0 207 -45.5t109 -156.5t35 -314q0 -242 -90.5 -363t-278.5 -121z" />
    <glyph glyph-name="six" unicode="6" horiz-adv-x="782" 
d="M391 -25q-166 0 -262 92t-96 250v717q0 183 96 282t264 99q159 0 253.5 -97.5t94.5 -268.5v-127h-237v100q0 57 -30 87t-77 30q-98 0 -98 -117v-299h8q26 81 74.5 112t122.5 31q109 0 177.5 -85t68.5 -220v-244q0 -158 -96.5 -250t-262.5 -92zM285 367q0 -60 28.5 -91.5
t77.5 -31.5t78 31.5t29 91.5v145q0 60 -29 91.5t-78 31.5t-77.5 -31.5t-28.5 -91.5v-145z" />
    <glyph glyph-name="seven" unicode="7" horiz-adv-x="747" 
d="M160 0q8 179 16.5 288t25.5 211t46 171.5t71.5 134t108.5 135.5q4 5 18.5 20t17.5 18.5t13.5 16t12.5 18t8 17t7.5 21t3 23.5t1.5 30v41h-236v-223h-231v469h662v-287q0 -99 -21 -155t-80 -118q-75 -80 -109 -169.5t-44 -236.5t-2 -425h-289z" />
    <glyph glyph-name="eight" unicode="8" 
d="M401 -25q-171 0 -264.5 91.5t-93.5 250.5v187q0 111 46 169t171 89v8q-117 17 -167 74.5t-50 156.5v72q0 159 93.5 250.5t264.5 91.5q164 0 261.5 -91.5t97.5 -250.5v-72q0 -99 -50 -156.5t-167 -74.5v-8q125 -31 171 -89t46 -169v-187q0 -159 -94 -250.5t-265 -91.5z
M309 973q0 -60 20.5 -90.5t71.5 -30.5t72 30.5t21 90.5v49q0 57 -24 87t-69 30q-44 0 -68 -30t-24 -87v-49zM313 369q0 -65 21 -95t67 -30t67 30t21 95v135q0 61 -19 96t-69 35t-69 -35t-19 -96v-135z" />
    <glyph glyph-name="nine" unicode="9" 
d="M399 -25q-159 0 -253.5 98t-94.5 269v127h238v-100q0 -57 29.5 -87t76.5 -30q99 0 99 117v299h-9q-26 -81 -74 -112.5t-122 -31.5q-109 0 -177.5 85t-68.5 220v244q0 158 96 250t262 92t262.5 -92t96.5 -250v-717q0 -183 -96.5 -282t-264.5 -99zM295 879
q0 -60 28.5 -91.5t77.5 -31.5t78 31.5t29 91.5v145q0 60 -29 91.5t-78 31.5t-77.5 -31.5t-28.5 -91.5v-145z" />
    <glyph glyph-name="colon" unicode=":" horiz-adv-x="286" 
d="M141 956q-54 0 -81 37.5t-27 124.5q0 84 27 120t81 36q113 0 113 -156q0 -162 -113 -162zM33 137q0 84 27 120t81 36q113 0 113 -156q0 -162 -113 -162q-54 0 -81 37.5t-27 124.5z" />
    <glyph glyph-name="semicolon" unicode=";" horiz-adv-x="286" 
d="M90 -145l68 112v8h-17q-54 0 -81 37.5t-27 124.5q0 84 27 120t81 36q113 0 113 -156q0 -124 -57 -219l-41 -63h-66zM33 1118q0 84 27 120t81 36q113 0 113 -156q0 -162 -113 -162q-54 0 -81 37.5t-27 124.5z" />
    <glyph glyph-name="less" unicode="&#x3c;" horiz-adv-x="573" 
d="M530 451l-487 225v37l487 225v-37l-438 -203v-8l438 -203v-36z" />
    <glyph glyph-name="equal" unicode="=" horiz-adv-x="573" 
d="M43 901v37h487v-37h-487zM43 451v36h487v-36h-487z" />
    <glyph glyph-name="greater" unicode="&#x3e;" horiz-adv-x="573" 
d="M43 451v36l438 203v8l-438 203v37l487 -225v-37z" />
    <glyph glyph-name="question" unicode="?" horiz-adv-x="356" 
d="M119 -25q-54 0 -81.5 37.5t-27.5 124.5q0 143 92 156l-10 643h51v-59v-6q0 -56 1 -79.5t6 -50t16.5 -35t32.5 -8.5q36 0 46.5 40.5t10.5 179.5v321q0 145 -82 145t-82 -145v-209h-61l-2 193q-1 115 37 163t108 48t109 -48t39 -163v-291q0 -97 -5.5 -154t-19.5 -85
t-31 -36t-47 -8q-33 0 -52 19.5t-28 62.5l-6 -438q98 -10 98 -156q0 -162 -112 -162z" />
    <glyph glyph-name="at" unicode="@" horiz-adv-x="905" 
d="M453 -25q-192 0 -301 104t-109 279v695q0 175 109 278t301 103t300.5 -103t108.5 -278v-424q0 -183 -119 -287h-206q-21 58 -21 150v16h-4q-14 -93 -43.5 -136.5t-83.5 -43.5q-60 0 -93.5 45.5t-33.5 134.5v151q0 118 94 140q27 7 65 2.5t54 -2.5q55 9 55 75
q0 35 -16.5 53.5t-44.5 18.5q-29 0 -45.5 -19t-16.5 -53q0 -16 3 -34h-132q-10 29 -10 59q0 85 56 134.5t139 49.5q88 0 139 -50t51 -142v-399q0 -73 17 -146q69 54 102 121t33 162v424q0 153 -90.5 241t-257.5 88t-258 -88t-91 -241v-695q0 -153 91.5 -242t257.5 -89
q127 0 214.5 55t123.5 154h55q-36 -128 -139 -194.5t-254 -66.5zM393 537q0 -33 15.5 -49.5t40.5 -16.5q55 0 55 86v96q0 29 4 111h-4q-10 -28 -21 -40.5t-37 -16.5q-30 -6 -41.5 -23.5t-11.5 -60.5v-86z" />
    <glyph glyph-name="A" unicode="A" horiz-adv-x="739" 
d="M0 0l209 1391h317l213 -1391h-245l-23 147h-213l-18 -147h-240zM281 319h165l-84 570h-10z" />
    <glyph glyph-name="B" unicode="B" horiz-adv-x="784" 
d="M43 0v1391h342q104 0 174.5 -19t110 -58t55.5 -91t16 -127v-148q0 -87 -53 -125t-174 -43v-8q133 -8 180 -75.5t47 -204.5v-195q0 -154 -83.5 -225.5t-264.5 -71.5h-350zM297 250h82q110 0 110 98v131q0 58 -23.5 81.5t-84.5 23.5h-84v-334zM297 811h82q59 0 84.5 27
t25.5 82v110q0 111 -110 111h-82v-330z" />
    <glyph glyph-name="C" unicode="C" horiz-adv-x="788" 
d="M401 -25q-166 0 -262 92t-96 250v756q0 158 96 250t262 92q164 0 254 -92t90 -252v-174h-237v102q0 148 -105 148q-50 0 -79 -32.5t-29 -92.5v-655q0 -61 28 -92t80 -31q49 0 77 31.5t28 91.5v284h235v-334q0 -156 -95.5 -249t-246.5 -93z" />
    <glyph glyph-name="D" unicode="D" 
d="M43 0v1391h324q192 0 292.5 -86.5t100.5 -253.5v-711q0 -167 -100.5 -253.5t-292.5 -86.5h-324zM295 250h72q73 0 107 30t34 99v633q0 69 -34 99t-107 30h-72v-891z" />
    <glyph glyph-name="E" unicode="E" horiz-adv-x="624" 
d="M43 0v1391h539v-246h-287v-166h287v-246h-287v-487h287v-246h-539z" />
    <glyph glyph-name="F" unicode="F" horiz-adv-x="624" 
d="M43 0v1391h539v-246h-287v-166h287v-246h-287v-733h-252z" />
    <glyph glyph-name="G" unicode="G" horiz-adv-x="782" 
d="M289 -25q-115 0 -180.5 91.5t-65.5 250.5v750q0 156 99 252t264 96q164 0 248.5 -85t84.5 -277v-133h-231v88q0 70 -28.5 104.5t-76.5 34.5q-52 0 -80 -31t-28 -92v-657q0 -60 29.5 -91.5t81.5 -31.5q48 0 75 32t27 93v223h-164v203h393v-795h-225v260h-10
q-26 -164 -72 -224.5t-141 -60.5z" />
    <glyph glyph-name="H" unicode="H" 
d="M43 0v1391h252v-412h213v412h252v-1391h-252v733h-213v-733h-252z" />
    <glyph glyph-name="I" unicode="I" horiz-adv-x="339" 
d="M43 0v1391h254v-1391h-254z" />
    <glyph glyph-name="J" unicode="J" horiz-adv-x="792" 
d="M391 -25q-166 0 -262 92t-96 250v373h252v-344q0 -60 28.5 -91.5t77.5 -31.5t78 31.5t29 91.5v1045h252v-1074q0 -158 -96.5 -250t-262.5 -92z" />
    <glyph glyph-name="K" unicode="K" horiz-adv-x="753" 
d="M43 0v1391h252v-451h10l182 451h267l-215 -492l202 -899h-266l-170 776h-10v-776h-252z" />
    <glyph glyph-name="L" unicode="L" horiz-adv-x="542" 
d="M43 0v1391h252v-1145h205v-246h-457z" />
    <glyph glyph-name="M" unicode="M" horiz-adv-x="944" 
d="M43 0v1391h281l145 -584h8l144 584h280v-1391h-252v836h-8l-174 -635h-8l-176 635h-9v-836h-231z" />
    <glyph glyph-name="N" unicode="N" horiz-adv-x="763" 
d="M43 0v1391h219l219 -703h8v703h232v-1391h-219l-219 702h-9v-702h-231z" />
    <glyph glyph-name="O" unicode="O" 
d="M401 -25q-166 0 -262 92t-96 250v756q0 158 96 250t262 92t262.5 -92t96.5 -250v-756q0 -158 -96.5 -250t-262.5 -92zM295 346q0 -60 28.5 -91.5t77.5 -31.5t78 31.5t29 91.5v698q0 60 -29 91.5t-78 31.5t-77.5 -31.5t-28.5 -91.5v-698z" />
    <glyph glyph-name="P" unicode="P" horiz-adv-x="774" 
d="M43 -2v1393h340q166 0 262 -92t96 -250v-150q0 -163 -84 -244.5t-274 -81.5h-86v-575h-254zM297 766h86q49 0 77.5 29t28.5 88v143q0 59 -28.5 88t-77.5 29h-86v-377z" />
    <glyph glyph-name="Q" unicode="Q" 
d="M401 -25q-166 0 -262 92t-96 250v756q0 158 96 250t262 92t262.5 -92t96.5 -250v-756q0 -102 -41 -176l84 -141h-103l-38 66q-97 -91 -261 -91zM295 346q0 -60 28.5 -91.5t77.5 -31.5q44 0 72.5 26.5t32.5 76.5l-180 303h102l80 -133v548q0 60 -29 91.5t-78 31.5
t-77.5 -31.5t-28.5 -91.5v-698z" />
    <glyph glyph-name="R" unicode="R" horiz-adv-x="784" 
d="M43 0v1391h340q167 0 262.5 -86.5t95.5 -243.5v-137q0 -72 -18.5 -114t-73.5 -70.5t-157 -39.5v-8q115 0 163.5 -42.5t53.5 -131.5l20 -340q5 -103 45 -178h-268q-22 42 -30 79t-11 99l-12 303q-1 42 -19.5 60t-60.5 18h-76v-559h-254zM297 739h84q54 0 81 40.5t27 111.5
v135q0 59 -28.5 88t-77.5 29h-86v-404z" />
    <glyph glyph-name="S" unicode="S" horiz-adv-x="804" 
d="M399 -25q-171 0 -266.5 98t-95.5 298v184h250v-111q0 -107 27.5 -152.5t88.5 -45.5q54 0 74.5 42.5t20.5 139.5t-21 138.5t-94 60.5l-107 26q-239 61 -239 369q0 180 90 286.5t272 106.5q353 0 353 -385v-108h-244v102q0 64 -24.5 95.5t-77.5 31.5q-103 0 -103 -131
q0 -70 23 -104.5t86 -47.5l112 -22q128 -26 186 -122t58 -280q0 -242 -90.5 -355.5t-278.5 -113.5z" />
    <glyph glyph-name="T" unicode="T" horiz-adv-x="708" 
d="M227 0v1145h-184v246h623v-246h-185v-1145h-254z" />
    <glyph glyph-name="U" unicode="U" 
d="M401 -25q-166 0 -262 92t-96 250v1074h252v-1045q0 -60 28.5 -91.5t77.5 -31.5t78 31.5t29 91.5v1045h252v-1074q0 -158 -96.5 -250t-262.5 -92z" />
    <glyph glyph-name="V" unicode="V" horiz-adv-x="739" 
d="M213 0l-213 1391h246l131 -1037h8l115 1037h239l-209 -1391h-317z" />
    <glyph glyph-name="W" unicode="W" horiz-adv-x="1243" 
d="M190 0l-190 1391h268l94 -764h9l123 764h280l131 -764h8l84 764h246l-192 -1391h-279l-151 893h-9l-143 -893h-279z" />
    <glyph glyph-name="X" unicode="X" horiz-adv-x="778" 
d="M0 0l217 696l-217 695h279l116 -430h8l117 430h258l-215 -695l215 -696h-278l-117 432h-8l-117 -432h-258z" />
    <glyph glyph-name="Y" unicode="Y" horiz-adv-x="774" 
d="M268 0v446l-268 945h264l131 -566h11l129 566h239l-252 -945v-446h-254z" />
    <glyph glyph-name="Z" unicode="Z" horiz-adv-x="638" 
d="M20 0l269 1145h-252v246h581l-260 -1145h260v-246h-598z" />
    <glyph glyph-name="bracketleft" unicode="[" horiz-adv-x="495" 
d="M86 0v1415h324v-51h-263v-1313h263v-51h-324z" />
    <glyph glyph-name="backslash" unicode="\" horiz-adv-x="438" 
d="M362 0l-155 694l-193 697h62l157 -697l191 -694h-62z" />
    <glyph glyph-name="bracketright" unicode="]" horiz-adv-x="495" 
d="M86 0v51h262v1313h-262v51h324v-1415h-324z" />
    <glyph glyph-name="asciicircum" unicode="^" horiz-adv-x="538" 
d="M43 1303l174 215h105l174 -215h-31l-195 170l-196 -170h-31z" />
    <glyph glyph-name="underscore" unicode="_" horiz-adv-x="606" 
d="M14 -66v41h578v-41h-578z" />
    <glyph glyph-name="grave" unicode="`" horiz-adv-x="425" 
d="M352 1303l-309 215h104l236 -215h-31z" />
    <glyph glyph-name="a" unicode="a" horiz-adv-x="768" 
d="M260 -25q-102 0 -159.5 78.5t-57.5 233.5v258q0 202 162 241q47 11 110.5 3t92.5 -3q96 16 96 132q0 59 -28.5 90.5t-76.5 31.5q-52 0 -80 -33t-28 -92q0 -29 6 -59h-227q-17 45 -17 102q0 145 96 230.5t240 85.5q149 0 237.5 -86t88.5 -244v-688q0 -31 0.5 -55.5
t2.5 -47t3.5 -34.5t5.5 -32.5t5.5 -26.5l7.5 -30t8 -30h-226q-20 50 -27.5 103.5t-7.5 152.5v29h-8q-25 -161 -75.5 -235.5t-143.5 -74.5zM274 334q0 -57 26 -84t69 -27q46 0 71 37.5t25 108.5v166q0 97 8 190h-8q-17 -46 -36 -68t-62 -30q-53 -11 -73 -40.5t-20 -103.5
v-149z" />
    <glyph glyph-name="b" unicode="b" horiz-adv-x="761" 
d="M504 -20q-86 0 -138 57.5t-90 193.5h-8l-22 -231h-203v1475h254v-222l-29 -231h8q39 136 90.5 194t137.5 58q104 0 159.5 -88.5t55.5 -233.5v-651q0 -145 -55.5 -233t-159.5 -88zM297 328q0 -119 96 -119q44 0 69 29.5t25 89.5v594q0 118 -94 118q-96 0 -96 -118v-594z
" />
    <glyph glyph-name="c" unicode="c" horiz-adv-x="757" 
d="M391 -25q-155 0 -251.5 98.5t-96.5 256.5v590q0 158 96.5 256t251.5 98q154 0 244 -96t90 -256v-113h-231v96q0 121 -101 121q-100 0 -100 -123v-557q0 -60 28.5 -91.5t77.5 -31.5q97 0 97 123l-2 266h231v-284q0 -160 -90 -256.5t-244 -96.5z" />
    <glyph glyph-name="d" unicode="d" horiz-adv-x="761" 
d="M258 -25q-104 0 -159.5 90.5t-55.5 235.5v651q0 145 55.5 233.5t159.5 88.5q86 0 137 -58t90 -194h9l-29 231v222h254v-1475h-203l-22 231h-9q-39 -137 -90.5 -196.5t-136.5 -59.5zM274 328q0 -60 25.5 -89.5t69.5 -29.5q96 0 96 119v594q0 118 -96 118q-44 0 -69.5 -29
t-25.5 -89v-594z" />
    <glyph glyph-name="e" unicode="e" horiz-adv-x="759" 
d="M379 -25q-155 0 -245.5 92t-90.5 250v603q0 158 96.5 256t251.5 98q153 0 239.5 -95.5t86.5 -256.5v-314l-424 2v-272q0 -121 88 -121t88 121v182h231v-209q0 -154 -84.5 -245t-236.5 -91zM293 752h201v168q0 58 -27 89t-74 31q-46 0 -73 -31t-27 -89v-168z" />
    <glyph glyph-name="f" unicode="f" horiz-adv-x="444" 
d="M86 -2v1003l-74 3v249h82v86q0 92 57.5 144.5t182.5 52.5h74l30 -205h-78q-28 0 -39.5 -11.5t-11.5 -37.5v-29h121v-249l-90 -3v-1003h-254z" />
    <glyph glyph-name="g" unicode="g" horiz-adv-x="761" 
d="M395 -205q-166 0 -247.5 82t-81.5 213h231q0 -90 96 -90q46 0 70 26t24 72v260h-10q-29 -135 -75 -188t-132 -53q-104 0 -165.5 86t-61.5 235v504q0 157 55.5 244.5t171.5 87.5q169 0 215 -250h9l28 229h197v-1155q0 -136 -80 -219.5t-244 -83.5zM274 467
q0 -60 25.5 -91.5t69.5 -31.5q96 0 96 168v406q0 60 -25.5 91t-68.5 31q-44 0 -70.5 -31t-26.5 -91v-451z" />
    <glyph glyph-name="h" unicode="h" horiz-adv-x="784" 
d="M43 0v1475h254v-222l-29 -231h8q34 130 93.5 191t150.5 61q103 0 162 -73.5t59 -227.5v-973h-254v915q0 125 -90 125q-100 0 -100 -159v-881h-254z" />
    <glyph glyph-name="i" unicode="i" horiz-adv-x="339" 
d="M43 1233q54 -21 127 -21q69 0 127 21v-1233h-254v1233zM10 1393q0 114 160 114q164 0 164 -114q0 -113 -164 -113q-86 0 -123 29t-37 84z" />
    <glyph glyph-name="j" unicode="j" horiz-adv-x="331" 
d="M-20 -205l2 205h18q21 0 30 12t9 39v1182q54 -21 127 -21q69 0 127 21v-1137q0 -156 -70.5 -228.5t-222.5 -72.5h-20zM53 1430q0 163 115 163q55 0 84 -38t29 -125q0 -86 -29 -123t-84 -37q-115 0 -115 160z" />
    <glyph glyph-name="k" unicode="k" horiz-adv-x="755" 
d="M33 0v1434h254v-594h10l199 413h272l-223 -456l198 -797h-272l-174 758h-10v-758h-254z" />
    <glyph glyph-name="l" unicode="l" horiz-adv-x="344" 
d="M76 0q-20 57 -26.5 104t-6.5 152v1219h254v-1256q0 -73 7.5 -115t27.5 -104h-256z" />
    <glyph glyph-name="m" unicode="m" horiz-adv-x="1228" 
d="M43 0v1253h197l45 -231h8q42 136 98.5 194t149.5 58q87 0 131 -59.5t59 -192.5h8q43 136 98.5 194t145.5 58q97 0 150 -79t53 -222v-973h-254v897q0 125 -88 125q-103 0 -103 -162v-860h-254v897q0 125 -88 125q-102 0 -102 -162v-860h-254z" />
    <glyph glyph-name="n" unicode="n" horiz-adv-x="784" 
d="M43 0v1253h197l28 -231h8q34 130 93.5 191t150.5 61q103 0 162 -73.5t59 -227.5v-973h-254v915q0 125 -90 125q-100 0 -100 -159v-881h-254z" />
    <glyph glyph-name="o" unicode="o" horiz-adv-x="759" 
d="M389 -25q-157 0 -251.5 99t-94.5 256v590q0 158 96.5 256t251.5 98q145 0 235.5 -97t90.5 -255v-594q0 -152 -91.5 -252.5t-236.5 -100.5zM293 328q0 -119 96 -119q44 0 69 29.5t25 89.5v594q0 118 -94 118q-96 0 -96 -118v-594z" />
    <glyph glyph-name="p" unicode="p" horiz-adv-x="761" 
d="M43 -180v1433h203l22 -231h8q39 136 90.5 194t137.5 58q104 0 159.5 -88.5t55.5 -233.5v-635q0 -161 -55 -251.5t-160 -90.5q-82 0 -136.5 61t-91.5 195h-8l29 -231v-180h-254zM297 328q0 -119 96 -119q44 0 69 29.5t25 89.5v594q0 118 -94 118q-96 0 -96 -118v-594z" />
    <glyph glyph-name="q" unicode="q" horiz-adv-x="761" 
d="M465 -180v180l29 231h-9q-38 -136 -91.5 -196t-135.5 -60q-105 0 -160 90.5t-55 251.5v635q0 147 55.5 234.5t169.5 87.5q87 0 140.5 -61.5t76.5 -188.5h9l28 229h197v-1433h-254zM274 328q0 -60 25.5 -89.5t69.5 -29.5q96 0 96 119v594q0 118 -96 118q-44 0 -69.5 -29
t-25.5 -89v-594z" />
    <glyph glyph-name="r" unicode="r" horiz-adv-x="466" 
d="M43 0v1253h182l35 -229h8l19 131q14 98 88 98h67l23 -256l-72 -8q-55 -6 -75.5 -34.5t-20.5 -96.5v-858h-254z" />
    <glyph glyph-name="s" unicode="s" horiz-adv-x="751" 
d="M377 -25q-395 0 -336 551h221q-10 -120 1.5 -188t38.5 -91.5t75 -23.5q50 0 75 40.5t25 107.5q0 74 -23.5 119.5t-80.5 64.5l-121 39q-63 20 -105.5 53.5t-64.5 79.5t-30.5 94t-8.5 111q0 159 85.5 250.5t256.5 91.5q188 0 270 -104t62 -326h-219q8 108 -19.5 148
t-85.5 40q-50 0 -77 -28t-27 -80q0 -47 22 -76.5t76 -42.5l107 -27q225 -56 225 -368q0 -435 -342 -435z" />
    <glyph glyph-name="t" unicode="t" horiz-adv-x="450" 
d="M94 0v1001h-74v252h91l-27 195h274l-26 -195h98v-252h-82v-1001h-254z" />
    <glyph glyph-name="u" unicode="u" horiz-adv-x="763" 
d="M246 -25q-97 0 -150 80t-53 226v972h254v-897q0 -125 88 -125q82 0 82 125v897h254v-1253h-234v252h-8q-37 -147 -90.5 -212t-142.5 -65z" />
    <glyph glyph-name="v" unicode="v" horiz-adv-x="741" 
d="M229 0l-229 1253h258l119 -755h8l109 755h247l-225 -1253h-287z" />
    <glyph glyph-name="w" unicode="w" horiz-adv-x="1234" 
d="M229 0l-229 1253h258l119 -612h8l113 612h250l122 -612h9l108 612h248l-225 -1253h-234l-153 737h-9l-151 -737h-234z" />
    <glyph glyph-name="x" unicode="x" horiz-adv-x="741" 
d="M0 0l172 719l-154 534h256l99 -383h8l100 383h242l-154 -534l172 -719h-258l-116 481h-11l-108 -481h-248z" />
    <glyph glyph-name="y" unicode="y" horiz-adv-x="741" 
d="M242 -205q-117 0 -180.5 70t-61.5 190q0 103 35 183h188q-16 -31 -28.5 -75t-12.5 -73q0 -84 49 -84q47 0 56 103l-287 1144h262l121 -659h8l103 659h247l-209 -1083q-39 -205 -113 -290t-177 -85z" />
    <glyph glyph-name="z" unicode="z" horiz-adv-x="657" 
d="M14 0l283 1001h-260v252h606l-281 -1001h269v-252h-617z" />
    <glyph glyph-name="braceleft" unicode="{" horiz-adv-x="544" 
d="M502 -25q-281 0 -281 385v2q0 92 -14 156t-39.5 98t-55.5 48t-69 14v33q39 0 69 14t55.5 47.5t39.5 97.5t14 156v4q0 385 281 385v-51q-108 0 -163.5 -80.5t-55.5 -253.5v-4q0 -141 -38 -219.5t-126 -108.5v-8q88 -30 126 -108.5t38 -219.5v-2q0 -173 55 -253t164 -80
v-52z" />
    <glyph glyph-name="bar" unicode="|" horiz-adv-x="233" 
d="M86 -205v1784h61v-1784h-61z" />
    <glyph glyph-name="braceright" unicode="}" horiz-adv-x="544" 
d="M43 27q109 0 164 80t55 253v2q0 141 38 219.5t126 108.5v8q-88 30 -126 108.5t-38 219.5v4q0 173 -55.5 253.5t-163.5 80.5v51q281 0 281 -385v-4q0 -92 14 -156t39.5 -97.5t55.5 -47.5t69 -14v-33q-39 0 -69 -14t-55.5 -48t-39.5 -98t-14 -156v-2q0 -385 -281 -385v52z
" />
    <glyph glyph-name="asciitilde" unicode="~" horiz-adv-x="522" 
d="M43 653q0 63 26 96t74 33q61 0 121 -53l33 -29q45 -41 80 -41q41 0 41 58v65h61v-47q0 -63 -26 -96t-74 -33q-61 0 -121 53l-33 29q-45 41 -80 41q-41 0 -41 -57v-66h-61v47z" />
    <glyph glyph-name="exclamdown" unicode="&#xa1;" horiz-adv-x="286" 
d="M125 1116q-92 13 -92 156q0 87 27 124.5t81 37.5q113 0 113 -162q0 -146 -98 -156l20 -1122h-72z" />
    <glyph glyph-name="cent" unicode="&#xa2;" horiz-adv-x="747" 
d="M375 -147l-37 2l6 125q-231 35 -231 387v522q0 385 280 385h19l8 141l37 -2l-8 -143q223 -37 223 -381v-80h-62v80q0 152 -39.5 231.5t-124.5 98.5l-63 -1192h10q112 0 164.5 83t52.5 257v245h62v-245q0 -392 -279 -392h-12zM174 367q0 -301 174 -336l62 1192h-17
q-108 0 -163.5 -80.5t-55.5 -253.5v-522z" />
    <glyph glyph-name="sterling" unicode="&#xa3;" horiz-adv-x="774" 
d="M43 29q68 0 116.5 55t63.5 154l105 653h-242v37h246l33 200q20 125 89 194t191 69h86v-52h-94q-179 0 -211 -211l-33 -200h338v-37h-342l-100 -629q-26 -165 -109 -217v-8h551v-37h-688v29z" />
    <glyph glyph-name="yen" unicode="&#xa5;" horiz-adv-x="819" 
d="M387 0v455l-68 239h-276v37h266l-45 160h-221v37h211l-129 463h61l230 -822h8l209 822h61l-119 -455h201v-37h-211l-43 -160h254v-37h-262l-65 -247v-455h-62z" />
    <glyph glyph-name="brokenbar" unicode="&#xa6;" horiz-adv-x="233" 
d="M86 750v829h61v-829h-61zM86 -205v830h61v-830h-61z" />
    <glyph glyph-name="section" unicode="&#xa7;" horiz-adv-x="647" 
d="M332 -25q-287 0 -287 261v129h61v-129q0 -209 226 -209q106 0 158.5 51t52.5 158q0 101 -29 149t-104 70q-34 -6 -78 -6q-287 0 -287 260v129h61v-129q0 -116 56 -171t170 -55q107 0 159 54t52 172q0 115 -39 158.5t-148 62.5l-94 16q-116 20 -167.5 78.5t-51.5 165.5
q0 106 73.5 165.5t202.5 59.5q267 0 267 -235v-99h-62v93q0 97 -50.5 143.5t-154.5 46.5q-100 0 -157.5 -46t-57.5 -128q0 -87 39 -129t131 -57l95 -17q136 -23 185.5 -81t49.5 -197q0 -179 -125 -234q68 -29 96.5 -83.5t28.5 -155.5q0 -261 -272 -261z" />
    <glyph glyph-name="dieresis" unicode="&#xa8;" horiz-adv-x="559" 
d="M414 1329q-99 0 -99 70q0 71 99 71q102 0 102 -71q0 -70 -102 -70zM43 1399q0 71 98 71q103 0 103 -71q0 -70 -103 -70q-98 0 -98 70z" />
    <glyph glyph-name="copyright" unicode="&#xa9;" horiz-adv-x="905" 
d="M453 -25q-192 0 -301 104t-109 279v695q0 175 109 278t301 103t300.5 -103t108.5 -278v-695q0 -175 -109 -279t-300 -104zM104 358q0 -153 91.5 -242t257.5 -89t257 89t91 242v695q0 153 -90.5 241t-257.5 88t-258 -88t-91 -241v-695zM221 444v500q0 104 64 164.5
t174 60.5q108 0 167.5 -61t59.5 -166v-115h-158v68q0 53 -17.5 75.5t-51.5 22.5q-33 0 -52.5 -22t-19.5 -62v-434q0 -39 19.5 -59.5t52.5 -20.5q69 0 69 80v191h156v-222q0 -104 -62.5 -165.5t-162.5 -61.5q-110 0 -174 60.5t-64 166.5z" />
    <glyph glyph-name="ordfeminine" unicode="&#xaa;" horiz-adv-x="428" 
d="M137 680q-58 0 -90.5 44.5t-32.5 131.5v148q0 116 92 135q26 7 63 2.5t52 -2.5q53 10 53 75q0 34 -15.5 52t-43.5 18q-29 0 -45 -19t-16 -53q0 -12 4 -32h-129q-9 22 -9 57q0 82 54.5 130t136.5 48q84 0 134 -48.5t50 -137.5v-389q0 -16 0.5 -29t0.5 -22.5t1.5 -20.5
t2 -15.5t3 -15t3 -13t4 -15t4.5 -15.5h-129q-19 50 -19 146v16h-6q-14 -92 -42 -134t-81 -42zM145 883q0 -62 54 -62q55 0 55 82v94q0 68 4 107h-4q-10 -26 -21 -37.5t-36 -17.5q-29 -6 -40.5 -22.5t-11.5 -57.5v-86z" />
    <glyph glyph-name="guillemotleft" unicode="&#xab;" horiz-adv-x="495" 
d="M453 451l-205 235v16l205 236v-45l-170 -195v-8l170 -194v-45zM43 686v16l205 236v-45l-170 -195v-8l170 -194v-45z" />
    <glyph glyph-name="logicalnot" unicode="&#xac;" horiz-adv-x="573" 
d="M494 451v450h-451v37h487v-487h-36z" />
    <glyph glyph-name="registered" unicode="&#xae;" horiz-adv-x="905" 
d="M453 385q-192 0 -301 104t-109 279v285q0 175 109 278t301 103t300.5 -103t108.5 -278v-285q0 -175 -109 -279t-300 -104zM104 768q0 -153 91.5 -242.5t257.5 -89.5t257 89.5t91 242.5v285q0 153 -90.5 241t-257.5 88t-258 -88t-91 -241v-285zM289 584v663h162
q80 0 126 -41.5t46 -115.5v-66q0 -50 -25 -74.5t-96 -31.5v-5q56 0 79 -20t25 -62l10 -161q3 -48 21 -86h-127q-18 38 -21 86l-6 143q0 20 -8.5 28.5t-28.5 8.5h-36v-266h-121zM410 936h41q51 0 51 74v63q0 55 -51 55h-41v-192z" />
    <glyph glyph-name="macron" unicode="&#xaf;" horiz-adv-x="438" 
d="M43 1372v62h352v-62h-352z" />
    <glyph glyph-name="degree" unicode="&#xb0;" horiz-adv-x="311" 
d="M156 1227q-113 0 -113 176t113 176q112 0 112 -176t-112 -176zM104 1403q0 -73 13 -99t39 -26t38.5 26t12.5 99t-12.5 99t-38.5 26t-39 -26t-13 -99z" />
    <glyph glyph-name="plusminus" unicode="&#xb1;" horiz-adv-x="573" 
d="M268 451v225h-225v37h225v225h37v-225h225v-37h-225v-225h-37zM43 348v37h487v-37h-487z" />
    <glyph glyph-name="uni00B2" unicode="&#xb2;" horiz-adv-x="393" 
d="M14 768q0 93 20 145t72 95l93 75q32 26 41.5 44t9.5 49v43q0 28 -14 43.5t-39 15.5q-24 0 -39 -16t-15 -43v-70h-123v74q0 97 49 144.5t130 47.5q180 0 180 -205q0 -65 -22.5 -116.5t-82.5 -100.5l-88 -73q-36 -29 -36 -84h227v-142h-363v74z" />
    <glyph glyph-name="uni00B3" unicode="&#xb3;" horiz-adv-x="401" 
d="M197 674q-91 0 -137 54.5t-46 145.5v99h127v-92q0 -68 54 -68q53 0 53 68v65q0 68 -53 68h-19v110h23q51 0 51 64v24q0 60 -51 60q-26 0 -41 -15t-15 -45v-51h-127v66q0 88 50 137t135 49q91 0 138.5 -49.5t47.5 -144.5q0 -58 -25.5 -93t-91.5 -43v-4q71 -18 94 -54
t23 -118q0 -121 -45 -177t-145 -56z" />
    <glyph glyph-name="acute" unicode="&#xb4;" horiz-adv-x="425" 
d="M43 1303l236 215h104l-309 -215h-31z" />
    <glyph glyph-name="uni00B5" unicode="&#xb5;" horiz-adv-x="763" 
d="M43 -205v1458h254v-897q0 -125 88 -125q82 0 82 125v897h254v-1253h-234v252h-8q-37 -147 -90.5 -212t-142.5 -65q-121 0 -172 123l30 -303h-61z" />
    <glyph glyph-name="paragraph" unicode="&#xb6;" horiz-adv-x="743" 
d="M487 -180v565h-34q-192 0 -301 104t-109 279v266q0 175 109 278t301 103h96v-1595h-62zM295 596q0 -89 40 -124.5t118 -35.5h34v707h-45q-85 0 -116 -37.5t-31 -120.5v-389zM639 -180v1595h61v-1595h-61z" />
    <glyph glyph-name="periodcentered" unicode="&#xb7;" horiz-adv-x="339" 
d="M170 567q-52 0 -89.5 37.5t-37.5 89.5t37.5 89.5t89.5 37.5t89.5 -37.5t37.5 -89.5t-37.5 -89.5t-89.5 -37.5z" />
    <glyph glyph-name="cedilla" unicode="&#xb8;" horiz-adv-x="253" 
d="M43 -205v35h66q55 0 55 35q0 18 -22.5 28t-71.5 5l47 94h14l-18 -49q98 0 98 -74q0 -31 -25.5 -52.5t-76.5 -21.5h-66z" />
    <glyph glyph-name="uni00B9" unicode="&#xb9;" horiz-adv-x="237" 
d="M96 694v537h-96v98h37q34 0 46.5 14.5t14.5 47.5h125v-697h-127z" />
    <glyph glyph-name="ordmasculine" unicode="&#xba;" horiz-adv-x="413" 
d="M211 674q-89 0 -143 56.5t-54 146.5v335q0 91 55 147t144 56q83 0 134.5 -56t51.5 -145v-340q0 -87 -52 -143.5t-136 -56.5zM158 874q0 -67 53 -67q55 0 55 67v340q0 33 -15 50.5t-40 17.5q-53 0 -53 -68v-340z" />
    <glyph glyph-name="guillemotright" unicode="&#xbb;" horiz-adv-x="495" 
d="M248 451v45l170 194v8l-170 195v45l205 -236v-16zM43 451v45l170 194v8l-170 195v45l205 -236v-16z" />
    <glyph glyph-name="onequarter" unicode="&#xbc;" horiz-adv-x="679" 
d="M119 0l190 694l158 697h61l-192 -697l-156 -694h-61zM0 1231v98h37q34 0 46.5 14.5t14.5 47.5h125v-697h-127v537h-96zM317 74v131l164 491h148v-514h37v-108h-37v-74h-127v74h-185zM424 182h78l2 271h-6l-74 -267v-4z" />
    <glyph glyph-name="onehalf" unicode="&#xbd;" horiz-adv-x="772" 
d="M119 0l190 694l158 697h61l-192 -697l-156 -694h-61zM0 1231v98h37q34 0 46.5 14.5t14.5 47.5h125v-697h-127v537h-96zM393 0v74q0 93 20 144.5t72 94.5l93 76q32 26 41.5 43.5t9.5 48.5v43q0 28 -14.5 44t-39.5 16q-24 0 -38.5 -16.5t-14.5 -43.5v-69h-123v73
q0 97 49 145t130 48q180 0 180 -205q0 -65 -22.5 -116.5t-82.5 -100.5l-88 -74q-37 -30 -37 -84h228v-141h-363z" />
    <glyph glyph-name="threequarters" unicode="&#xbe;" horiz-adv-x="813" 
d="M260 0l191 694l157 697h62l-193 -697l-155 -694h-62zM14 874v99h127v-92q0 -68 54 -68q53 0 53 68v65q0 68 -53 68h-19v110h23q51 0 51 64v24q0 60 -51 60q-26 0 -41 -15t-15 -45v-51h-127v66q0 88 50 137t135 49q91 0 138.5 -49.5t47.5 -144.5q0 -58 -25.5 -93
t-91.5 -43v-4q71 -18 94 -54t23 -118q0 -121 -45 -177t-145 -56q-91 0 -137 54.5t-46 145.5zM451 74v131l163 491h148v-514h37v-108h-37v-74h-127v74h-184zM557 182h78l2 271h-6l-74 -267v-4z" />
    <glyph glyph-name="questiondown" unicode="&#xbf;" horiz-adv-x="403" 
d="M229 -25q-70 0 -108.5 48t-38.5 163v291q0 127 11.5 189t31 78t59.5 16q33 0 52 -19.5t28 -62.5l6 438q-98 10 -98 156q0 162 113 162q54 0 81 -37.5t27 -124.5q0 -143 -92 -156l10 -643h-51v59v12q0 53 -1 76t-6 49t-16.5 34t-31.5 8q-36 0 -47 -40.5t-11 -178.5v-322
q0 -145 82 -145t82 145v209h62l2 -193q3 -211 -146 -211z" />
    <glyph glyph-name="Agrave" unicode="&#xc0;" horiz-adv-x="739" 
d="M0 0l209 1391h317l213 -1391h-245l-23 147h-213l-18 -147h-240zM150 1518v61l434 -84v-61zM281 319h165l-84 570h-10z" />
    <glyph glyph-name="Aacute" unicode="&#xc1;" horiz-adv-x="739" 
d="M0 0l209 1391h317l213 -1391h-245l-23 147h-213l-18 -147h-240zM154 1434v61l434 84v-61zM281 319h165l-84 570h-10z" />
    <glyph glyph-name="Acircumflex" unicode="&#xc2;" horiz-adv-x="739" 
d="M0 0l209 1391h317l213 -1391h-245l-23 147h-213l-18 -147h-240zM156 1434v61l217 84l217 -84v-61l-217 84zM281 319h165l-84 570h-10z" />
    <glyph glyph-name="Atilde" unicode="&#xc3;" horiz-adv-x="739" 
d="M0 0l209 1391h317l213 -1391h-245l-23 147h-213l-18 -147h-240zM281 319h165l-84 570h-10z" />
    <glyph glyph-name="Adieresis" unicode="&#xc4;" horiz-adv-x="739" 
d="M0 0l209 1391h317l213 -1391h-245l-23 147h-213l-18 -147h-240zM133 1507q0 72 98 72q103 0 103 -72q0 -69 -103 -69q-53 0 -75.5 17.5t-22.5 51.5zM281 319h165l-84 570h-10zM406 1507q0 72 98 72q102 0 102 -72q0 -69 -102 -69q-53 0 -75.5 17.5t-22.5 51.5z" />
    <glyph glyph-name="Aring" unicode="&#xc5;" horiz-adv-x="739" 
d="M0 0l209 1391h80q-48 10 -72 34t-24 56q0 43 45 70.5t131 27.5t131 -27.5t45 -70.5q0 -32 -24 -56t-72 -34h77l213 -1391h-245l-23 147h-213l-18 -147h-240zM258 1481q0 -51 111 -51q110 0 110 51t-110 51q-111 0 -111 -51zM281 319h165l-84 570h-10z" />
    <glyph glyph-name="AE" unicode="&#xc6;" horiz-adv-x="1017" 
d="M0 0l270 1391h705v-246h-287v-166h287v-246h-287v-399l14 -88h273v-246h-539v147h-164l-26 -147h-246zM309 365h127v675h-8z" />
    <glyph glyph-name="Ccedilla" unicode="&#xc7;" horiz-adv-x="788" 
d="M330 -205v35h65q56 0 56 35q0 18 -23 28t-72 5l39 77q-163 2 -257.5 93.5t-94.5 248.5v756q0 158 96 250t262 92q164 0 254 -92t90 -252v-174h-237v102q0 148 -105 148q-50 0 -79 -32.5t-29 -92.5v-655q0 -61 28 -92t80 -31q49 0 77 31.5t28 91.5v284h235v-334
q0 -153 -92 -246t-239 -96l-13 -32q99 0 99 -74q0 -31 -26 -52.5t-77 -21.5h-65z" />
    <glyph glyph-name="Egrave" unicode="&#xc8;" horiz-adv-x="624" 
d="M43 0v1391h539v-246h-287v-166h287v-246h-287v-487h287v-246h-539zM43 1518v61l434 -84v-61z" />
    <glyph glyph-name="Eacute" unicode="&#xc9;" horiz-adv-x="624" 
d="M43 0v1391h539v-246h-287v-166h287v-246h-287v-487h287v-246h-539zM147 1434v61l435 84v-61z" />
    <glyph glyph-name="Ecircumflex" unicode="&#xca;" horiz-adv-x="624" 
d="M43 0v1391h539v-246h-287v-166h287v-246h-287v-487h287v-246h-539zM94 1434v61l217 84l217 -84v-61l-217 84z" />
    <glyph glyph-name="Edieresis" unicode="&#xcb;" horiz-adv-x="624" 
d="M43 0v1391h539v-246h-287v-166h287v-246h-287v-487h287v-246h-539zM80 1507q0 72 98 72q103 0 103 -72q0 -69 -103 -69q-53 0 -75.5 17.5t-22.5 51.5zM352 1507q0 72 99 72q102 0 102 -72q0 -69 -102 -69q-99 0 -99 69z" />
    <glyph glyph-name="Igrave" unicode="&#xcc;" horiz-adv-x="339" 
d="M43 0v1391h254v-1391h-254zM43 1518v61l254 -84v-61z" />
    <glyph glyph-name="Iacute" unicode="&#xcd;" horiz-adv-x="339" 
d="M43 0v1391h254v-1391h-254zM43 1434v61l254 84v-61z" />
    <glyph glyph-name="Icircumflex" unicode="&#xce;" horiz-adv-x="339" 
d="M43 0v1391h254v-1391h-254zM43 1434v61l127 84l127 -84v-61l-127 75z" />
    <glyph glyph-name="Idieresis" unicode="&#xcf;" horiz-adv-x="339" 
d="M43 0v1391h254v-1391h-254zM-47 1507q0 72 98 72q103 0 103 -72q0 -69 -103 -69q-53 0 -75.5 17.5t-22.5 51.5zM184 1507q0 72 99 72q102 0 102 -72q0 -69 -102 -69q-99 0 -99 69z" />
    <glyph glyph-name="Eth" unicode="&#xd0;" 
d="M43 0v807h-43v61h43v523h324q192 0 292.5 -86.5t100.5 -253.5v-711q0 -167 -100.5 -253.5t-292.5 -86.5h-324zM295 250h72q73 0 107 30t34 99v633q0 69 -34 99t-107 30h-72v-273h139v-61h-139v-557z" />
    <glyph glyph-name="Ntilde" unicode="&#xd1;" horiz-adv-x="763" 
d="M43 0v1391h219l219 -703h8v703h232v-1391h-219l-219 702h-9v-702h-231zM154 1434v47q0 63 26 96t74 33q32 0 59 -11.5t62 -42.5l33 -28q45 -41 79 -41q41 0 41 57v66h62v-47q0 -62 -26.5 -95.5t-74.5 -33.5q-32 0 -58.5 11t-61.5 42l-33 29q-44 40 -80 40q-41 0 -41 -57
v-65h-61z" />
    <glyph glyph-name="Ograve" unicode="&#xd2;" 
d="M401 -25q-166 0 -262 92t-96 250v756q0 158 96 250t262 92t262.5 -92t96.5 -250v-756q0 -158 -96.5 -250t-262.5 -92zM184 1518v61l434 -84v-61zM295 346q0 -60 28.5 -91.5t77.5 -31.5t78 31.5t29 91.5v698q0 60 -29 91.5t-78 31.5t-77.5 -31.5t-28.5 -91.5v-698z" />
    <glyph glyph-name="Oacute" unicode="&#xd3;" 
d="M401 -25q-166 0 -262 92t-96 250v756q0 158 96 250t262 92t262.5 -92t96.5 -250v-756q0 -158 -96.5 -250t-262.5 -92zM184 1434v61l434 84v-61zM295 346q0 -60 28.5 -91.5t77.5 -31.5t78 31.5t29 91.5v698q0 60 -29 91.5t-78 31.5t-77.5 -31.5t-28.5 -91.5v-698z" />
    <glyph glyph-name="Ocircumflex" unicode="&#xd4;" 
d="M401 -25q-166 0 -262 92t-96 250v756q0 158 96 250t262 92t262.5 -92t96.5 -250v-756q0 -158 -96.5 -250t-262.5 -92zM184 1434v61l217 84l217 -84v-61l-217 84zM295 346q0 -60 28.5 -91.5t77.5 -31.5t78 31.5t29 91.5v698q0 60 -29 91.5t-78 31.5t-77.5 -31.5
t-28.5 -91.5v-698z" />
    <glyph glyph-name="Otilde" unicode="&#xd5;" 
d="M401 -25q-166 0 -262 92t-96 250v756q0 158 96 250t262 92t262.5 -92t96.5 -250v-756q0 -158 -96.5 -250t-262.5 -92zM184 1434v47q0 62 26.5 95.5t74.5 33.5q32 0 59 -11.5t62 -42.5l32 -28q45 -41 80 -41q41 0 41 57v66h62v-47q0 -62 -26.5 -95.5t-74.5 -33.5
q-61 0 -121 53l-32 29q-44 40 -80 40q-41 0 -41 -57v-65h-62zM295 346q0 -60 28.5 -91.5t77.5 -31.5t78 31.5t29 91.5v698q0 60 -29 91.5t-78 31.5t-77.5 -31.5t-28.5 -91.5v-698z" />
    <glyph glyph-name="Odieresis" unicode="&#xd6;" 
d="M401 -25q-166 0 -262 92t-96 250v756q0 158 96 250t262 92t262.5 -92t96.5 -250v-756q0 -158 -96.5 -250t-262.5 -92zM164 1507q0 72 98 72q103 0 103 -72q0 -69 -103 -69q-53 0 -75.5 17.5t-22.5 51.5zM295 346q0 -60 28.5 -91.5t77.5 -31.5t78 31.5t29 91.5v698
q0 60 -29 91.5t-78 31.5t-77.5 -31.5t-28.5 -91.5v-698zM436 1507q0 72 99 72q102 0 102 -72q0 -69 -102 -69q-99 0 -99 69z" />
    <glyph glyph-name="multiply" unicode="&#xd7;" horiz-adv-x="456" 
d="M86 494l-27 26l160 160l-160 158l27 26l160 -157l157 157l27 -26l-158 -158l158 -160l-27 -26l-157 159z" />
    <glyph glyph-name="Oslash" unicode="&#xd8;" 
d="M401 -25q-106 0 -186 39.5t-125 112.5l-76 -127h-14v98l59 101q-16 56 -16 118v756q0 158 96 250t262 92q104 0 183 -37t123 -106l86 143h10v-104l-64 -107q21 -58 21 -131v-756q0 -158 -96.5 -250t-262.5 -92zM295 346q0 -60 28.5 -91.5t77.5 -31.5t78 31.5t29 91.5v475
l-213 -354v-121zM295 588l213 354v102q0 60 -29 91.5t-78 31.5t-77.5 -31.5t-28.5 -91.5v-456z" />
    <glyph glyph-name="Ugrave" unicode="&#xd9;" 
d="M401 -25q-166 0 -262 92t-96 250v1074h252v-1045q0 -60 28.5 -91.5t77.5 -31.5t78 31.5t29 91.5v1045h252v-1074q0 -158 -96.5 -250t-262.5 -92zM43 1518v61l434 -84v-61z" />
    <glyph glyph-name="Uacute" unicode="&#xda;" 
d="M401 -25q-166 0 -262 92t-96 250v1074h252v-1045q0 -60 28.5 -91.5t77.5 -31.5t78 31.5t29 91.5v1045h252v-1074q0 -158 -96.5 -250t-262.5 -92zM326 1434v61l434 84v-61z" />
    <glyph glyph-name="Ucircumflex" unicode="&#xdb;" 
d="M401 -25q-166 0 -262 92t-96 250v1074h252v-1045q0 -60 28.5 -91.5t77.5 -31.5t78 31.5t29 91.5v1045h252v-1074q0 -158 -96.5 -250t-262.5 -92zM184 1434v61l217 84l217 -84v-61l-217 84z" />
    <glyph glyph-name="Udieresis" unicode="&#xdc;" 
d="M401 -25q-166 0 -262 92t-96 250v1074h252v-1045q0 -60 28.5 -91.5t77.5 -31.5t78 31.5t29 91.5v1045h252v-1074q0 -158 -96.5 -250t-262.5 -92zM164 1507q0 72 98 72q103 0 103 -72q0 -69 -103 -69q-53 0 -75.5 17.5t-22.5 51.5zM436 1507q0 72 99 72q102 0 102 -72
q0 -69 -102 -69q-99 0 -99 69z" />
    <glyph glyph-name="Yacute" unicode="&#xdd;" horiz-adv-x="774" 
d="M268 0v446l-268 945h264l131 -566h11l129 566h239l-252 -945v-446h-254zM184 1434v61l434 84v-61z" />
    <glyph glyph-name="Thorn" unicode="&#xde;" horiz-adv-x="774" 
d="M43 -2v1393h254v-267h86q166 0 262 -92t96 -250v-149q0 -163 -84 -244.5t-274 -81.5h-86v-309h-254zM297 500h86q106 0 106 116v144q0 59 -28.5 88t-77.5 29h-86v-377z" />
    <glyph glyph-name="germandbls" unicode="&#xdf;" horiz-adv-x="788" 
d="M86 0v1001h-74v252h82q0 122 81.5 188t230.5 66q159 0 255.5 -83t96.5 -253q0 -64 -14.5 -111.5t-36 -72.5t-47 -44.5t-47 -30t-36 -27t-14.5 -37.5q0 -18 7 -28t26 -21l45 -27q62 -37 89.5 -122.5t27.5 -239.5q0 -217 -53 -313.5t-181 -96.5h-127l2 223h56q37 0 52 37
t15 131q0 63 -7.5 98t-19 49.5t-38.5 36.5q-58 44 -72 93t-14 180q0 215 155 319q10 148 -96 148q-55 0 -79.5 -29t-24.5 -102q0 -24 7 -122t7 -177v-885h-254z" />
    <glyph glyph-name="agrave" unicode="&#xe0;" horiz-adv-x="757" 
d="M260 -25q-102 0 -159.5 78.5t-57.5 233.5v258q0 202 162 241q47 11 110.5 3t92.5 -3q96 16 96 132q0 59 -28.5 90.5t-76.5 31.5q-52 0 -80 -33t-28 -92q0 -29 6 -59h-227q-17 45 -17 102q0 145 96 230.5t240 85.5q149 0 237.5 -86t88.5 -244v-688q0 -31 0.5 -55.5
t2.5 -47t3.5 -34.5t5.5 -32.5t5.5 -26.5l7.5 -30t8 -30h-226q-20 50 -27.5 103.5t-7.5 152.5v29h-8q-25 -161 -75.5 -235.5t-143.5 -74.5zM59 1518h105l235 -215h-30zM274 334q0 -57 26 -84t69 -27q46 0 71 37.5t25 108.5v166q0 97 8 190h-8q-17 -46 -36 -68t-62 -30
q-53 -11 -73 -40.5t-20 -103.5v-149z" />
    <glyph glyph-name="aacute" unicode="&#xe1;" horiz-adv-x="757" 
d="M260 -25q-102 0 -159.5 78.5t-57.5 233.5v258q0 202 162 241q47 11 110.5 3t92.5 -3q96 16 96 132q0 59 -28.5 90.5t-76.5 31.5q-52 0 -80 -33t-28 -92q0 -29 6 -59h-227q-17 45 -17 102q0 145 96 230.5t240 85.5q149 0 237.5 -86t88.5 -244v-688q0 -31 0.5 -55.5
t2.5 -47t3.5 -34.5t5.5 -32.5t5.5 -26.5l7.5 -30t8 -30h-226q-20 50 -27.5 103.5t-7.5 152.5v29h-8q-25 -161 -75.5 -235.5t-143.5 -74.5zM274 334q0 -57 26 -84t69 -27q46 0 71 37.5t25 108.5v166q0 97 8 190h-8q-17 -46 -36 -68t-62 -30q-53 -11 -73 -40.5t-20 -103.5
v-149zM365 1303l235 215h105l-310 -215h-30z" />
    <glyph glyph-name="acircumflex" unicode="&#xe2;" horiz-adv-x="757" 
d="M260 -25q-102 0 -159.5 78.5t-57.5 233.5v258q0 202 162 241q47 11 110.5 3t92.5 -3q96 16 96 132q0 59 -28.5 90.5t-76.5 31.5q-52 0 -80 -33t-28 -92q0 -29 6 -59h-227q-17 45 -17 102q0 145 96 230.5t240 85.5q149 0 237.5 -86t88.5 -244v-688q0 -31 0.5 -55.5
t2.5 -47t3.5 -34.5t5.5 -32.5t5.5 -26.5l7.5 -30t8 -30h-226q-20 50 -27.5 103.5t-7.5 152.5v29h-8q-25 -161 -75.5 -235.5t-143.5 -74.5zM160 1303l174 215h104l174 -215h-30l-195 170l-197 -170h-30zM274 334q0 -57 26 -84t69 -27q46 0 71 37.5t25 108.5v166q0 97 8 190
h-8q-17 -46 -36 -68t-62 -30q-53 -11 -73 -40.5t-20 -103.5v-149z" />
    <glyph glyph-name="atilde" unicode="&#xe3;" horiz-adv-x="757" 
d="M260 -25q-102 0 -159.5 78.5t-57.5 233.5v258q0 202 162 241q47 11 110.5 3t92.5 -3q96 16 96 132q0 59 -28.5 90.5t-76.5 31.5q-52 0 -80 -33t-28 -92q0 -29 6 -59h-227q-17 45 -17 102q0 145 96 230.5t240 85.5q149 0 237.5 -86t88.5 -244v-688q0 -31 0.5 -55.5
t2.5 -47t3.5 -34.5t5.5 -32.5t5.5 -26.5l7.5 -30t8 -30h-226q-20 50 -27.5 103.5t-7.5 152.5v29h-8q-25 -161 -75.5 -235.5t-143.5 -74.5zM164 1331v47q0 63 26 96t74 33q61 0 121 -53l33 -29q45 -41 80 -41q41 0 41 58v65h61v-47q0 -63 -26 -96t-74 -33q-61 0 -121 53
l-33 29q-45 41 -80 41q-41 0 -41 -57v-66h-61zM274 334q0 -57 26 -84t69 -27q46 0 71 37.5t25 108.5v166q0 97 8 190h-8q-17 -46 -36 -68t-62 -30q-53 -11 -73 -40.5t-20 -103.5v-149z" />
    <glyph glyph-name="adieresis" unicode="&#xe4;" horiz-adv-x="757" 
d="M260 -25q-102 0 -159.5 78.5t-57.5 233.5v258q0 202 162 241q47 11 110.5 3t92.5 -3q96 16 96 132q0 59 -28.5 90.5t-76.5 31.5q-52 0 -80 -33t-28 -92q0 -29 6 -59h-227q-17 45 -17 102q0 145 96 230.5t240 85.5q149 0 237.5 -86t88.5 -244v-688q0 -31 0.5 -55.5
t2.5 -47t3.5 -34.5t5.5 -32.5t5.5 -26.5l7.5 -30t8 -30h-226q-20 50 -27.5 103.5t-7.5 152.5v29h-8q-25 -161 -75.5 -235.5t-143.5 -74.5zM150 1399q0 71 98 71q102 0 102 -71q0 -70 -102 -70q-98 0 -98 70zM274 334q0 -57 26 -84t69 -27q46 0 71 37.5t25 108.5v166
q0 97 8 190h-8q-17 -46 -36 -68t-62 -30q-53 -11 -73 -40.5t-20 -103.5v-149zM422 1399q0 71 98 71q103 0 103 -71q0 -70 -103 -70q-98 0 -98 70z" />
    <glyph glyph-name="aring" unicode="&#xe5;" horiz-adv-x="757" 
d="M260 -25q-102 0 -159.5 78.5t-57.5 233.5v258q0 202 162 241q47 11 110.5 3t92.5 -3q96 16 96 132q0 59 -28.5 90.5t-76.5 31.5q-52 0 -80 -33t-28 -92q0 -29 6 -59h-227q-17 45 -17 102q0 145 96 230.5t240 85.5q149 0 237.5 -86t88.5 -244v-688q0 -31 0.5 -55.5
t2.5 -47t3.5 -34.5t5.5 -32.5t5.5 -26.5l7.5 -30t8 -30h-226q-20 50 -27.5 103.5t-7.5 152.5v29h-8q-25 -161 -75.5 -235.5t-143.5 -74.5zM211 1419q0 44 45 71.5t131 27.5t131 -27.5t45 -71.5q0 -43 -45 -70.5t-131 -27.5t-131 27.5t-45 70.5zM274 334q0 -57 26 -84t69 -27
q46 0 71 37.5t25 108.5v166q0 97 8 190h-8q-17 -46 -36 -68t-62 -30q-53 -11 -73 -40.5t-20 -103.5v-149zM276 1419q0 -51 111 -51t111 51t-111 51t-111 -51z" />
    <glyph glyph-name="ae" unicode="&#xe6;" horiz-adv-x="1181" 
d="M279 -25q-115 0 -175.5 85.5t-60.5 244.5v240q0 202 162 241q47 11 110.5 3t92.5 -3q45 9 62 40t17 89q0 125 -100 125t-100 -122v-52h-236v78q0 161 94 245.5t244 84.5q128 0 209 -66q92 66 215 66q153 0 239.5 -95.5t86.5 -256.5v-314l-424 2v-272q0 -121 88 -121
t88 121v182h231v-209q0 -154 -84.5 -245t-236.5 -91q-121 0 -204.5 57.5t-115.5 160.5q-28 -218 -202 -218zM274 334q0 -57 26 -84t69 -27q96 0 96 131v258q0 42 6 88h-8q-16 -35 -34 -49.5t-62 -23.5q-51 -10 -72 -46.5t-21 -113.5v-133zM715 752h200v168q0 58 -27 89
t-73 31t-73 -31t-27 -89v-168z" />
    <glyph glyph-name="ccedilla" unicode="&#xe7;" horiz-adv-x="757" 
d="M311 -205v35h66q55 0 55 35q0 18 -22.5 28t-71.5 5l39 77q-150 5 -242 102.5t-92 252.5v590q0 158 96.5 256t251.5 98q154 0 244 -96t90 -256v-113h-231v96q0 121 -101 121q-100 0 -100 -123v-557q0 -60 28.5 -91.5t77.5 -31.5q97 0 97 123l-2 266h231v-284
q0 -160 -89.5 -256.5t-242.5 -96.5l-12 -32q98 0 98 -74q0 -31 -25.5 -52.5t-76.5 -21.5h-66z" />
    <glyph glyph-name="egrave" unicode="&#xe8;" horiz-adv-x="759" 
d="M379 -25q-155 0 -245.5 92t-90.5 250v603q0 158 96.5 256t251.5 98q153 0 239.5 -95.5t86.5 -256.5v-314l-424 2v-272q0 -121 88 -121t88 121v182h231v-209q0 -154 -84.5 -245t-236.5 -91zM59 1518h105l235 -215h-30zM293 752h201v168q0 58 -27 89t-74 31q-46 0 -73 -31
t-27 -89v-168z" />
    <glyph glyph-name="eacute" unicode="&#xe9;" horiz-adv-x="759" 
d="M379 -25q-155 0 -245.5 92t-90.5 250v603q0 158 96.5 256t251.5 98q153 0 239.5 -95.5t86.5 -256.5v-314l-424 2v-272q0 -121 88 -121t88 121v182h231v-209q0 -154 -84.5 -245t-236.5 -91zM293 752h201v168q0 58 -27 89t-74 31q-46 0 -73 -31t-27 -89v-168zM360 1303
l236 215h104l-309 -215h-31z" />
    <glyph glyph-name="ecircumflex" unicode="&#xea;" horiz-adv-x="759" 
d="M379 -25q-155 0 -245.5 92t-90.5 250v603q0 158 96.5 256t251.5 98q153 0 239.5 -95.5t86.5 -256.5v-314l-424 2v-272q0 -121 88 -121t88 121v182h231v-209q0 -154 -84.5 -245t-236.5 -91zM156 1303l174 215h104l174 -215h-30l-195 170l-197 -170h-30zM293 752h201v168
q0 58 -27 89t-74 31q-46 0 -73 -31t-27 -89v-168z" />
    <glyph glyph-name="edieresis" unicode="&#xeb;" horiz-adv-x="759" 
d="M379 -25q-155 0 -245.5 92t-90.5 250v603q0 158 96.5 256t251.5 98q153 0 239.5 -95.5t86.5 -256.5v-314l-424 2v-272q0 -121 88 -121t88 121v182h231v-209q0 -154 -84.5 -245t-236.5 -91zM143 1399q0 71 99 71q102 0 102 -71q0 -70 -102 -70q-99 0 -99 70zM293 752h201
v168q0 58 -27 89t-74 31q-46 0 -73 -31t-27 -89v-168zM416 1399q0 71 98 71q102 0 102 -71q0 -70 -102 -70q-98 0 -98 70z" />
    <glyph glyph-name="igrave" unicode="&#xec;" horiz-adv-x="339" 
d="M43 0v1253h254v-1253h-254zM0 1518h104l193 -215h-31z" />
    <glyph glyph-name="iacute" unicode="&#xed;" horiz-adv-x="339" 
d="M43 0v1253h254v-1253h-254zM43 1303l193 215h104l-266 -215h-31z" />
    <glyph glyph-name="icircumflex" unicode="&#xee;" horiz-adv-x="339" 
d="M43 0v1253h254v-1253h-254zM0 1303l119 215h104l117 -215h-31l-139 155l-139 -155h-31z" />
    <glyph glyph-name="idieresis" unicode="&#xef;" horiz-adv-x="339" 
d="M43 0v1253h254v-1253h-254zM-47 1399q0 71 98 71q103 0 103 -71q0 -70 -103 -70q-98 0 -98 70zM184 1399q0 71 99 71q102 0 102 -71q0 -70 -102 -70q-99 0 -99 70z" />
    <glyph glyph-name="eth" unicode="&#xf0;" horiz-adv-x="759" 
d="M389 -25q-157 0 -251.5 99t-94.5 256v590q0 175 64.5 264.5t168.5 89.5q78 0 122.5 -44.5t72.5 -144.5h8q-12 128 -35 232l-75 -14v61l61 12q-15 58 -29 99l234 53q27 -101 29 -109l73 15v-62l-61 -12q41 -196 41 -438v-594q0 -152 -91.5 -252.5t-236.5 -100.5zM293 328
q0 -119 96 -119q44 0 69 29.5t25 89.5v594q0 118 -94 118q-96 0 -96 -118v-594z" />
    <glyph glyph-name="ntilde" unicode="&#xf1;" horiz-adv-x="784" 
d="M43 0v1253h197l28 -231h8q34 130 93.5 191t150.5 61q103 0 162 -73.5t59 -227.5v-973h-254v915q0 125 -90 125q-100 0 -100 -159v-881h-254zM164 1331v47q0 63 26 96t74 33q61 0 121 -53l33 -29q45 -41 80 -41q41 0 41 58v65h61v-47q0 -63 -26 -96t-74 -33q-61 0 -121 53
l-33 29q-45 41 -80 41q-41 0 -41 -57v-66h-61z" />
    <glyph glyph-name="ograve" unicode="&#xf2;" horiz-adv-x="759" 
d="M389 -25q-157 0 -251.5 99t-94.5 256v590q0 158 96.5 256t251.5 98q145 0 235.5 -97t90.5 -255v-594q0 -152 -91.5 -252.5t-236.5 -100.5zM59 1518h105l235 -215h-30zM293 328q0 -119 96 -119q44 0 69 29.5t25 89.5v594q0 118 -94 118q-96 0 -96 -118v-594z" />
    <glyph glyph-name="oacute" unicode="&#xf3;" horiz-adv-x="759" 
d="M389 -25q-157 0 -251.5 99t-94.5 256v590q0 158 96.5 256t251.5 98q145 0 235.5 -97t90.5 -255v-594q0 -152 -91.5 -252.5t-236.5 -100.5zM293 328q0 -119 96 -119q44 0 69 29.5t25 89.5v594q0 118 -94 118q-96 0 -96 -118v-594zM365 1303l235 215h105l-310 -215h-30z
" />
    <glyph glyph-name="ocircumflex" unicode="&#xf4;" horiz-adv-x="759" 
d="M389 -25q-157 0 -251.5 99t-94.5 256v590q0 158 96.5 256t251.5 98q145 0 235.5 -97t90.5 -255v-594q0 -152 -91.5 -252.5t-236.5 -100.5zM154 1303l174 215h104l174 -215h-31l-194 170l-197 -170h-30zM293 328q0 -119 96 -119q44 0 69 29.5t25 89.5v594q0 118 -94 118
q-96 0 -96 -118v-594z" />
    <glyph glyph-name="otilde" unicode="&#xf5;" horiz-adv-x="759" 
d="M389 -25q-157 0 -251.5 99t-94.5 256v590q0 158 96.5 256t251.5 98q145 0 235.5 -97t90.5 -255v-594q0 -152 -91.5 -252.5t-236.5 -100.5zM164 1331v47q0 63 26 96t74 33q61 0 121 -53l33 -29q45 -41 80 -41q41 0 41 58v65h61v-47q0 -63 -26 -96t-74 -33q-61 0 -121 53
l-33 29q-45 41 -80 41q-41 0 -41 -57v-66h-61zM293 328q0 -119 96 -119q44 0 69 29.5t25 89.5v594q0 118 -94 118q-96 0 -96 -118v-594z" />
    <glyph glyph-name="odieresis" unicode="&#xf6;" horiz-adv-x="759" 
d="M389 -25q-157 0 -251.5 99t-94.5 256v590q0 158 96.5 256t251.5 98q145 0 235.5 -97t90.5 -255v-594q0 -152 -91.5 -252.5t-236.5 -100.5zM143 1399q0 71 99 71q102 0 102 -71q0 -70 -102 -70q-99 0 -99 70zM293 328q0 -119 96 -119q44 0 69 29.5t25 89.5v594
q0 118 -94 118q-96 0 -96 -118v-594zM416 1399q0 71 98 71q102 0 102 -71q0 -70 -102 -70q-98 0 -98 70z" />
    <glyph glyph-name="divide" unicode="&#xf7;" horiz-adv-x="573" 
d="M287 815q-54 0 -81.5 37.5t-27.5 124.5q0 85 27 120.5t82 35.5q112 0 112 -156q0 -162 -112 -162zM43 676v37h487v-37h-487zM178 418q0 84 27.5 119.5t81.5 35.5t83 -35.5t29 -119.5q0 -162 -112 -162q-54 0 -81.5 37.5t-27.5 124.5z" />
    <glyph glyph-name="oslash" unicode="&#xf8;" horiz-adv-x="759" 
d="M0 -45v98l72 121q-29 73 -29 156v590q0 158 96.5 256t251.5 98q84 0 152.5 -35t111.5 -98l95 157h10v-104l-72 -117q29 -76 29 -155v-594q0 -152 -91.5 -252.5t-236.5 -100.5q-184 0 -280 136l-95 -156h-14zM293 328q0 -119 96 -119q44 0 69 29.5t25 89.5v407l-190 -317
v-90zM293 541l190 315v66q0 118 -94 118q-96 0 -96 -118v-381z" />
    <glyph glyph-name="ugrave" unicode="&#xf9;" horiz-adv-x="763" 
d="M246 -25q-97 0 -150 80t-53 226v972h254v-897q0 -125 88 -125q82 0 82 125v897h254v-1253h-234v252h-8q-37 -147 -90.5 -212t-142.5 -65zM57 1518h105l235 -215h-30z" />
    <glyph glyph-name="uacute" unicode="&#xfa;" horiz-adv-x="763" 
d="M246 -25q-97 0 -150 80t-53 226v972h254v-897q0 -125 88 -125q82 0 82 125v897h254v-1253h-234v252h-8q-37 -147 -90.5 -212t-142.5 -65zM371 1303l235 215h105l-310 -215h-30z" />
    <glyph glyph-name="ucircumflex" unicode="&#xfb;" horiz-adv-x="763" 
d="M246 -25q-97 0 -150 80t-53 226v972h254v-897q0 -125 88 -125q82 0 82 125v897h254v-1253h-234v252h-8q-37 -147 -90.5 -212t-142.5 -65zM156 1303l174 215h104l174 -215h-30l-195 170l-197 -170h-30z" />
    <glyph glyph-name="udieresis" unicode="&#xfc;" horiz-adv-x="763" 
d="M246 -25q-97 0 -150 80t-53 226v972h254v-897q0 -125 88 -125q82 0 82 125v897h254v-1253h-234v252h-8q-37 -147 -90.5 -212t-142.5 -65zM147 1399q0 71 99 71q102 0 102 -71q0 -70 -102 -70q-99 0 -99 70zM420 1399q0 71 98 71q103 0 103 -71q0 -70 -103 -70
q-98 0 -98 70z" />
    <glyph glyph-name="yacute" unicode="&#xfd;" horiz-adv-x="782" 
d="M242 -205q-117 0 -180.5 70t-61.5 190q0 103 35 183h188q-16 -31 -28.5 -75t-12.5 -73q0 -84 49 -84q47 0 56 103l-287 1144h262l121 -659h8l103 659h247l-209 -1083q-39 -205 -113 -290t-177 -85zM360 1303l236 215h104l-309 -215h-31z" />
    <glyph glyph-name="thorn" unicode="&#xfe;" horiz-adv-x="761" 
d="M43 -205v1663h254v-205l-29 -231h8q37 138 91.5 195t132.5 57q108 0 163.5 -88t55.5 -234v-635q0 -161 -55 -251.5t-160 -90.5q-86 0 -136.5 44.5t-84.5 166.5h-9l23 -186v-205h-254zM297 328q0 -119 96 -119q44 0 69 29.5t25 89.5v594q0 118 -94 118q-96 0 -96 -118
v-594z" />
    <glyph glyph-name="ydieresis" unicode="&#xff;" horiz-adv-x="741" 
d="M242 -205q-117 0 -180.5 70t-61.5 190q0 103 35 183h188q-16 -31 -28.5 -75t-12.5 -73q0 -84 49 -84q47 0 56 103l-287 1144h262l121 -659h8l103 659h247l-209 -1083q-39 -205 -113 -290t-177 -85zM143 1399q0 71 99 71q102 0 102 -71q0 -70 -102 -70q-99 0 -99 70z
M416 1399q0 71 98 71q102 0 102 -71q0 -70 -102 -70q-98 0 -98 70z" />
    <glyph glyph-name="dotlessi" unicode="&#x131;" horiz-adv-x="339" 
d="M43 0v1253h254v-1253h-254z" />
    <glyph glyph-name="Lslash" unicode="&#x141;" horiz-adv-x="542" 
d="M43 0v807h-43v61h43v523h252v-523h139v-61h-139v-561h205v-246h-457z" />
    <glyph glyph-name="lslash" unicode="&#x142;" horiz-adv-x="344" 
d="M76 0q-20 57 -26.5 104t-6.5 152v180l-35 -57h-8v106l43 72v918h254v-496l39 65h8v-108l-47 -78v-639q0 -73 7.5 -115t27.5 -104h-256z" />
    <glyph glyph-name="OE" unicode="&#x152;" horiz-adv-x="1089" 
d="M401 -25q-166 0 -262 92t-96 250v756q0 158 96 250t262 92q85 0 152 -24h494v-246h-287v-166h287v-246h-287v-487h287v-246h-494q-70 -25 -152 -25zM295 346q0 -60 28.5 -91.5t77.5 -31.5t78 31.5t29 91.5v698q0 60 -29 91.5t-78 31.5t-77.5 -31.5t-28.5 -91.5v-698z" />
    <glyph glyph-name="oe" unicode="&#x153;" horiz-adv-x="1200" 
d="M389 -25q-157 0 -251.5 99t-94.5 256v590q0 158 96.5 256t251.5 98q128 0 213 -76q92 76 227 76q153 0 239.5 -95.5t86.5 -256.5v-314l-424 2v-272q0 -121 88 -121t88 121v182h232v-209q0 -154 -85 -245t-237 -91q-139 0 -223 72q-88 -72 -207 -72zM293 328
q0 -119 96 -119q44 0 69 29.5t25 89.5v594q0 118 -94 118q-96 0 -96 -118v-594zM733 752h201v168q0 58 -27 89t-73 31q-47 0 -74 -31t-27 -89v-168z" />
    <glyph glyph-name="Scaron" unicode="&#x160;" horiz-adv-x="804" 
d="M399 -25q-171 0 -266.5 98t-95.5 298v184h250v-111q0 -107 27.5 -152.5t88.5 -45.5q54 0 74.5 42.5t20.5 139.5t-21 138.5t-94 60.5l-107 26q-239 61 -239 369q0 180 90 286.5t272 106.5q353 0 353 -385v-108h-244v102q0 64 -24.5 95.5t-77.5 31.5q-103 0 -103 -131
q0 -70 23 -104.5t86 -47.5l112 -22q128 -26 186 -122t58 -280q0 -242 -90.5 -355.5t-278.5 -113.5zM186 1518v61l217 -84l218 84v-61l-218 -84z" />
    <glyph glyph-name="scaron" unicode="&#x161;" horiz-adv-x="751" 
d="M377 -25q-395 0 -336 551h221q-10 -120 1.5 -188t38.5 -91.5t75 -23.5q50 0 75 40.5t25 107.5q0 74 -23.5 119.5t-80.5 64.5l-121 39q-63 20 -105.5 53.5t-64.5 79.5t-30.5 94t-8.5 111q0 159 85.5 250.5t256.5 91.5q188 0 270 -104t62 -326h-219q8 108 -19.5 148
t-85.5 40q-50 0 -77 -28t-27 -80q0 -47 22 -76.5t76 -42.5l107 -27q225 -56 225 -368q0 -435 -342 -435zM150 1518h30l197 -170l194 170h31l-174 -215h-104z" />
    <glyph glyph-name="Ydieresis" unicode="&#x178;" horiz-adv-x="774" 
d="M268 0v446l-268 945h264l131 -566h11l129 566h239l-252 -945v-446h-254zM164 1507q0 72 98 72q103 0 103 -72q0 -69 -103 -69q-53 0 -75.5 17.5t-22.5 51.5zM436 1507q0 72 99 72q102 0 102 -72q0 -69 -102 -69q-99 0 -99 69z" />
    <glyph glyph-name="Zcaron" unicode="&#x17d;" horiz-adv-x="638" 
d="M20 0l269 1145h-252v246h581l-260 -1145h260v-246h-598zM102 1518v61l217 -84l218 84v-61l-218 -84z" />
    <glyph glyph-name="zcaron" unicode="&#x17e;" horiz-adv-x="638" 
d="M14 0l283 1001h-260v252h606l-281 -1001h269v-252h-617zM94 1518h31l197 -170l194 170h31l-174 -215h-105z" />
    <glyph glyph-name="florin" unicode="&#x192;" horiz-adv-x="602" 
d="M8 -25l-8 52h94q92 0 134 53.5t42 157.5v653h-209l5 37h204v346q0 125 58 193.5t180 68.5h86l8 -51h-94q-92 0 -134 -53.5t-42 -157.5v-346h225l-4 -37h-221v-653q0 -125 -58 -194t-180 -69h-86z" />
    <glyph glyph-name="circumflex" unicode="&#x2c6;" horiz-adv-x="538" 
d="M217 1303l-174 215h31l196 -170l195 170h31l-174 -215h-105z" />
    <glyph glyph-name="caron" unicode="&#x2c7;" horiz-adv-x="538" 
d="M217 1303l-174 215h31l196 -170l195 170h31l-174 -215h-105z" />
    <glyph glyph-name="breve" unicode="&#x2d8;" horiz-adv-x="438" 
d="M219 1321q-83 0 -129.5 41t-46.5 119v26h66v-28q0 -107 110 -107q111 0 111 107v28h65v-26q0 -78 -46.5 -119t-129.5 -41z" />
    <glyph glyph-name="dotaccent" unicode="&#x2d9;" horiz-adv-x="286" 
d="M141 1329q-98 0 -98 70q0 71 98 71q103 0 103 -71q0 -70 -103 -70z" />
    <glyph glyph-name="ring" unicode="&#x2da;" horiz-adv-x="438" 
d="M219 1321q-86 0 -131 27.5t-45 70.5q0 44 45 71.5t131 27.5t131 -27.5t45 -71.5q0 -43 -45 -70.5t-131 -27.5zM109 1419q0 -51 110 -51q111 0 111 51t-111 51q-110 0 -110 -51z" />
    <glyph glyph-name="ogonek" unicode="&#x2db;" horiz-adv-x="262" 
d="M154 -205q-51 0 -81 26.5t-30 72.5q0 39 33 69.5t98 36.5l29 -25q-61 -8 -85 -29.5t-24 -54.5q0 -61 76 -61h49v-35h-65z" />
    <glyph glyph-name="tilde" unicode="&#x2dc;" horiz-adv-x="522" 
d="M43 1378q0 63 26 96t74 33q61 0 121 -53l33 -29q45 -41 80 -41q41 0 41 58v65h61v-47q0 -63 -26 -96t-74 -33q-61 0 -121 53l-33 29q-45 41 -80 41q-41 0 -41 -57v-66h-61v47z" />
    <glyph glyph-name="hungarumlaut" unicode="&#x2dd;" horiz-adv-x="616" 
d="M233 1303l236 215h104l-309 -215h-31zM43 1303l236 215h104l-309 -215h-31z" />
    <glyph glyph-name="uni0394" unicode="&#x394;" horiz-adv-x="622" 
d="M43 0l209 1391h119l209 -1391h-537zM115 51h393l-193 1284h-8z" />
    <glyph glyph-name="uni03A9" unicode="&#x3a9;" horiz-adv-x="729" 
d="M14 0v51h209v10q-75 40 -107 114.5t-32 191.5v663q0 385 281 385q280 0 280 -385v-663q0 -117 -32 -191.5t-107 -114.5v-10h209v-51h-309v51q39 0 69 14t55.5 48t39.5 98t14 156v663q0 173 -55.5 253.5t-163.5 80.5q-109 0 -164.5 -80.5t-55.5 -253.5v-663q0 -92 14 -156
t40 -98t56 -48t69 -14v-51h-310z" />
    <glyph glyph-name="pi" unicode="&#x3c0;" horiz-adv-x="815" 
d="M164 0v1192h-150v61h770v-61h-159v-930q0 -104 42 -157.5t134 -53.5v-51q-122 0 -180 68.5t-58 193.5v930h-338v-1192h-61z" />
    <glyph glyph-name="endash" unicode="&#x2013;" horiz-adv-x="886" 
d="M43 676v37h801v-37h-801z" />
    <glyph glyph-name="emdash" unicode="&#x2014;" horiz-adv-x="1114" 
d="M43 676v37h1028v-37h-1028z" />
    <glyph glyph-name="quoteleft" unicode="&#x2018;" horiz-adv-x="286" 
d="M145 995q-112 0 -112 156q0 124 57 219l41 64h66l-68 -113v-8h16q54 0 81.5 -37.5t27.5 -124.5q0 -84 -27.5 -120t-81.5 -36z" />
    <glyph glyph-name="quoteright" unicode="&#x2019;" horiz-adv-x="286" 
d="M90 995l68 113v8h-17q-54 0 -81 37.5t-27 124.5q0 84 27 120t81 36q113 0 113 -156q0 -124 -57 -219l-41 -64h-66z" />
    <glyph glyph-name="quotesinglbase" unicode="&#x201a;" horiz-adv-x="239" 
d="M90 -145l68 112v8h-17q-54 0 -81 37.5t-27 124.5q0 84 27 120t81 36q113 0 113 -156q0 -124 -57 -219l-41 -63h-66z" />
    <glyph glyph-name="quotedblleft" unicode="&#x201c;" horiz-adv-x="544" 
d="M403 995q-112 0 -112 156q0 124 57 219l41 64h66l-68 -113v-8h16q54 0 81.5 -37.5t27.5 -124.5q0 -84 -27.5 -120t-81.5 -36zM33 1151q0 124 57 219l41 64h66l-68 -113v-8h16q54 0 81.5 -37.5t27.5 -124.5q0 -84 -27.5 -120t-81.5 -36q-112 0 -112 156z" />
    <glyph glyph-name="quotedblright" unicode="&#x201d;" horiz-adv-x="544" 
d="M348 995l68 113v8h-17q-54 0 -81 37.5t-27 124.5q0 84 27 120t81 36q113 0 113 -156q0 -124 -57 -219l-41 -64h-66zM33 1278q0 84 27 120t81 36q113 0 113 -156q0 -124 -57 -219l-41 -64h-66l68 113v8h-17q-54 0 -81 37.5t-27 124.5z" />
    <glyph glyph-name="quotedblbase" unicode="&#x201e;" horiz-adv-x="239" 
d="M90 -145l68 112v8h-17q-54 0 -81 37.5t-27 124.5q0 84 27 120t81 36q113 0 113 -156q0 -124 -57 -219l-41 -63h-66z" />
    <glyph glyph-name="dagger" unicode="&#x2020;" horiz-adv-x="409" 
d="M201 549l-15 145v482h-143v36h154l-11 162v133h37v-133l-10 -162h154v-36h-144v-482l-14 -145h-8z" />
    <glyph glyph-name="daggerdbl" unicode="&#x2021;" horiz-adv-x="409" 
d="M186 123v133l11 162h-154v37h143v215l15 145l-15 146v215h-143v36h154l-11 162v133h37v-133l-10 -162h154v-36h-144v-215l-14 -146l14 -145v-215h144v-37h-154l10 -162v-133h-37z" />
    <glyph glyph-name="bullet" unicode="&#x2022;" horiz-adv-x="550" 
d="M276 463q-97 0 -165 68t-68 163q0 97 68 165.5t165 68.5q95 0 163.5 -68.5t68.5 -165.5q0 -95 -68.5 -163t-163.5 -68z" />
    <glyph glyph-name="ellipsis" unicode="&#x2026;" horiz-adv-x="854" 
d="M756 -25q-54 0 -81.5 37.5t-27.5 124.5q0 84 27.5 120t81.5 36q112 0 112 -156q0 -162 -112 -162zM33 137q0 84 27 120t81 36q113 0 113 -156q0 -162 -113 -162q-54 0 -81 37.5t-27 124.5zM340 137q0 84 27.5 120t81.5 36q112 0 112 -156q0 -162 -112 -162
q-54 0 -81.5 37.5t-27.5 124.5z" />
    <glyph glyph-name="perthousand" unicode="&#x2030;" horiz-adv-x="1392" 
d="M285 0l190 694l158 697h61l-192 -697l-156 -694h-61zM43 850v389q0 82 49 129t135 47t135.5 -47t49.5 -129v-389q0 -82 -49.5 -129t-135.5 -47t-135 47t-49 129zM172 874q0 -30 15 -46.5t40 -16.5t40.5 16.5t15.5 46.5v340q0 30 -15.5 47t-40.5 17t-40 -17t-15 -47v-340z
M569 152v389q0 82 49.5 129t135.5 47t135 -47t49 -129v-389q0 -82 -49 -129.5t-135 -47.5t-135.5 47.5t-49.5 129.5zM698 176q0 -30 15.5 -46.5t40.5 -16.5t40 16.5t15 46.5v340q0 30 -15 47t-40 17t-40.5 -17t-15.5 -47v-340zM981 152v389q0 82 49 129t135 47t135.5 -47
t49.5 -129v-389q0 -82 -49.5 -129.5t-135.5 -47.5t-135 47.5t-49 129.5zM1110 176q0 -30 15 -46.5t40 -16.5t40.5 16.5t15.5 46.5v340q0 30 -15.5 47t-40.5 17t-40 -17t-15 -47v-340z" />
    <glyph glyph-name="guilsinglleft" unicode="&#x2039;" horiz-adv-x="290" 
d="M248 451l-205 235v16l205 236v-45l-170 -195v-8l170 -194v-45z" />
    <glyph glyph-name="guilsinglright" unicode="&#x203a;" horiz-adv-x="290" 
d="M43 451v45l170 194v8l-170 195v45l205 -236v-16z" />
    <glyph glyph-name="fraction" unicode="&#x2044;" horiz-adv-x="495" 
d="M43 0l190 694l158 697h62l-193 -697l-156 -694h-61z" />
    <glyph glyph-name="Euro" unicode="&#x20ac;" horiz-adv-x="550" 
d="M393 -25q-138 0 -209 99.5t-71 292.5v327h-70v37h70v160h-70v37h70v102q0 385 280 385q68 0 115 -20v-60q-50 29 -115 29q-108 0 -163.5 -80.5t-55.5 -253.5v-102h275l-5 -37h-270v-160h250l-4 -37h-246v-327q0 -340 219 -340q61 0 115 30v-59q-47 -23 -115 -23z" />
    <glyph glyph-name="trademark" unicode="&#x2122;" horiz-adv-x="862" 
d="M391 694v697h139l74 -293h4l72 293h139v-697h-125v418h-4l-88 -317h-4l-88 317h-4v-418h-115zM43 1268v123h311v-123h-92v-574h-127v574h-92z" />
    <glyph glyph-name="partialdiff" unicode="&#x2202;" horiz-adv-x="645" 
d="M322 -25q-279 0 -279 392v211q0 385 279 385q160 0 210 -189h9v275q0 173 -55 253t-164 80q-113 0 -165.5 -80t-52.5 -253h-61q0 385 279 385q280 0 280 -385v-682q0 -193 -71 -292.5t-209 -99.5zM104 367q0 -174 53 -257t165 -83q219 0 219 340v211q0 173 -55 253
t-164 80q-113 0 -165.5 -80t-52.5 -253v-211z" />
    <glyph glyph-name="product" unicode="&#x220f;" horiz-adv-x="815" 
d="M231 0v1339h-188v52h729v-52h-192v-1339h-62v1339h-225v-1339h-62z" />
    <glyph glyph-name="summation" unicode="&#x2211;" horiz-adv-x="542" 
d="M43 -2l104 696l-104 697h457v-52h-385l96 -645l-96 -645h385v-51h-457z" />
    <glyph glyph-name="minus" unicode="&#x2212;" horiz-adv-x="573" 
d="M43 676v37h487v-37h-487z" />
    <glyph glyph-name="radical" unicode="&#x221a;" horiz-adv-x="632" 
d="M252 0l-209 1391h63l201 -1336h8l220 1452h184v-51h-129l-219 -1456h-119z" />
    <glyph glyph-name="infinity" unicode="&#x221e;" horiz-adv-x="1425" 
d="M377 414q-157 0 -245.5 74t-88.5 206t88.5 206.5t245.5 74.5q280 0 346 -184q32 97 110.5 140.5t215.5 43.5q157 0 245 -74.5t88 -206.5t-88 -206t-245 -74q-281 0 -347 184q-32 -97 -110 -140.5t-215 -43.5zM104 694q0 -106 69.5 -167.5t203.5 -61.5q266 0 309 180l2 6
l-22 92q-22 92 -90.5 136.5t-198.5 44.5q-134 0 -203.5 -62t-69.5 -168zM737 737l23 -92q22 -92 90.5 -136t198.5 -44q134 0 203 61.5t69 167.5t-69 168t-203 62q-267 0 -310 -181z" />
    <glyph glyph-name="integral" unicode="&#x222b;" horiz-adv-x="808" 
d="M0 0v51h94q179 0 211 211l137 866q19 125 89 194t192 69h86v-52h-94q-179 0 -211 -211l-137 -866q-19 -124 -89 -193t-192 -69h-86z" />
    <glyph glyph-name="approxequal" unicode="&#x2248;" horiz-adv-x="522" 
d="M43 782q0 63 26 96t74 33q61 0 121 -53l33 -29q45 -41 80 -41q41 0 41 58v65h61v-47q0 -63 -26 -96t-74 -33q-61 0 -121 53l-33 29q-45 41 -80 41q-41 0 -41 -57v-66h-61v47zM43 477v47q0 63 26 96t74 33q61 0 121 -53l33 -29q45 -41 80 -41q41 0 41 58v65h61v-47
q0 -63 -26 -96t-74 -33q-61 0 -121 53l-33 29q-45 41 -80 41q-41 0 -41 -57v-66h-61z" />
    <glyph glyph-name="notequal" unicode="&#x2260;" horiz-adv-x="573" 
d="M82 289l65 162h-104v36h119l168 414h-287v37h301l66 162h36l-65 -162h149v-37h-163l-168 -414h331v-36h-346l-65 -162h-37z" />
    <glyph glyph-name="lessequal" unicode="&#x2264;" horiz-adv-x="573" 
d="M530 451l-487 225v37l487 225v-37l-438 -203v-8l438 -203v-36zM43 348v37h487v-37h-487z" />
    <glyph glyph-name="greaterequal" unicode="&#x2265;" horiz-adv-x="573" 
d="M43 451v36l438 203v8l-438 203v37l487 -225v-37zM43 348v37h487v-37h-487z" />
    <glyph glyph-name="lozenge" unicode="&#x25ca;" horiz-adv-x="487" 
d="M213 0l-170 606l170 647h61l170 -606l-170 -647h-61zM102 610l140 -495h8l135 528l-139 496h-8z" />
    <glyph glyph-name="I.ss02" horiz-adv-x="339" 
d="M43 1139q58 -21 127 -21t127 21v-1139h-254v1139zM14 1311q0 123 156 123t156 -123t-156 -123t-156 123z" />
    <glyph glyph-name="a.ss01" horiz-adv-x="761" 
d="M258 -20q-104 0 -159.5 88t-55.5 233v651q0 145 55.5 233.5t159.5 88.5q86 0 137 -58t90 -194h9l22 231h203v-1253h-203l-22 231h-9q-39 -136 -90 -193.5t-137 -57.5zM274 328q0 -60 25.5 -89.5t69.5 -29.5q96 0 96 119v594q0 118 -96 118q-44 0 -69.5 -29t-25.5 -89
v-594z" />
    <glyph glyph-name="aacute.ss01" horiz-adv-x="761" 
d="M258 -20q-104 0 -159.5 88t-55.5 233v651q0 145 55.5 233.5t159.5 88.5q86 0 137 -58t90 -194h9l22 231h203v-1253h-203l-22 231h-9q-39 -136 -90 -193.5t-137 -57.5zM274 328q0 -60 25.5 -89.5t69.5 -29.5q96 0 96 119v594q0 118 -96 118q-44 0 -69.5 -29t-25.5 -89
v-594zM365 1303l235 215h105l-310 -215h-30z" />
    <glyph glyph-name="acircumflex.ss01" horiz-adv-x="761" 
d="M258 -20q-104 0 -159.5 88t-55.5 233v651q0 145 55.5 233.5t159.5 88.5q86 0 137 -58t90 -194h9l22 231h203v-1253h-203l-22 231h-9q-39 -136 -90 -193.5t-137 -57.5zM160 1303l174 215h104l174 -215h-30l-195 170l-197 -170h-30zM274 328q0 -60 25.5 -89.5t69.5 -29.5
q96 0 96 119v594q0 118 -96 118q-44 0 -69.5 -29t-25.5 -89v-594z" />
    <glyph glyph-name="adieresis.ss01" horiz-adv-x="761" 
d="M258 -20q-104 0 -159.5 88t-55.5 233v651q0 145 55.5 233.5t159.5 88.5q86 0 137 -58t90 -194h9l22 231h203v-1253h-203l-22 231h-9q-39 -136 -90 -193.5t-137 -57.5zM156 1399q0 71 98 71q102 0 102 -71q0 -70 -102 -70q-98 0 -98 70zM274 328q0 -60 25.5 -89.5
t69.5 -29.5q96 0 96 119v594q0 118 -96 118q-44 0 -69.5 -29t-25.5 -89v-594zM428 1399q0 71 98 71q103 0 103 -71q0 -70 -103 -70q-98 0 -98 70z" />
    <glyph glyph-name="agrave.ss01" horiz-adv-x="761" 
d="M258 -20q-104 0 -159.5 88t-55.5 233v651q0 145 55.5 233.5t159.5 88.5q86 0 137 -58t90 -194h9l22 231h203v-1253h-203l-22 231h-9q-39 -136 -90 -193.5t-137 -57.5zM78 1518h104l236 -215h-31zM274 328q0 -60 25.5 -89.5t69.5 -29.5q96 0 96 119v594q0 118 -96 118
q-44 0 -69.5 -29t-25.5 -89v-594z" />
    <glyph glyph-name="aring.ss01" horiz-adv-x="761" 
d="M258 -20q-104 0 -159.5 88t-55.5 233v651q0 145 55.5 233.5t159.5 88.5q86 0 137 -58t90 -194h9l22 231h203v-1253h-203l-22 231h-9q-39 -136 -90 -193.5t-137 -57.5zM211 1419q0 44 45 71.5t131 27.5t131 -27.5t45 -71.5q0 -43 -45 -70.5t-131 -27.5t-131 27.5t-45 70.5
zM274 328q0 -60 25.5 -89.5t69.5 -29.5q96 0 96 119v594q0 118 -96 118q-44 0 -69.5 -29t-25.5 -89v-594zM276 1419q0 -51 111 -51t111 51t-111 51t-111 -51z" />
    <glyph glyph-name="atilde.ss01" horiz-adv-x="761" 
d="M258 -20q-104 0 -159.5 88t-55.5 233v651q0 145 55.5 233.5t159.5 88.5q86 0 137 -58t90 -194h9l22 231h203v-1253h-203l-22 231h-9q-39 -136 -90 -193.5t-137 -57.5zM164 1331v47q0 63 26 96t74 33q61 0 121 -53l33 -29q45 -41 80 -41q41 0 41 58v65h61v-47
q0 -63 -26 -96t-74 -33q-61 0 -121 53l-33 29q-45 41 -80 41q-41 0 -41 -57v-66h-61zM274 328q0 -60 25.5 -89.5t69.5 -29.5q96 0 96 119v594q0 118 -96 118q-44 0 -69.5 -29t-25.5 -89v-594z" />
    <glyph glyph-name="ae.ss01" horiz-adv-x="1171" 
d="M258 -25q-104 0 -159.5 90.5t-55.5 235.5v651q0 145 55.5 233.5t159.5 88.5q86 0 137 -58t90 -194h9l8 231h168l8 -231h8q39 137 91.5 194.5t142.5 57.5q99 0 153.5 -88t54.5 -219v-359l-421 2v-276q0 -121 96 -121q46 0 70 28t24 93v186h231v-215q0 -153 -57 -241.5
t-158 -88.5q-77 0 -134 58.5t-93 197.5h-8l-8 -231h-168l-8 231h-9q-39 -137 -90.5 -196.5t-136.5 -59.5zM274 328q0 -115 95 -115q96 0 96 115v594q0 118 -96 118q-44 0 -69.5 -29t-25.5 -89v-594zM707 752h204v168q0 57 -27.5 88.5t-72.5 31.5q-46 0 -75 -31.5t-29 -88.5
v-168z" />
    </font>
</defs>
</svg>
